<?xml version="1.0" standalone="no"?>
<!DOCTYPE svg PUBLIC "-//W3C//DTD SVG 1.1//EN" "http://www.w3.org/Graphics/SVG/1.1/DTD/svg11.dtd" >
<svg>
<metadata>
Created by FontForge 20090914 at Fri Mar 10 16:05:57 2017
 By www-data
(C)Copyright2002 Wataru Osakabe(Lovedesign Co.) All Rights Reserved.
</metadata>
<defs>
<font id="GameboyGamegirl" horiz-adv-x="907" >
  <font-face 
    font-family="Gameboy Gamegirl"
    font-weight="400"
    font-stretch="normal"
    units-per-em="1000"
    panose-1="0 0 4 0 0 0 0 0 0 0"
    ascent="800"
    descent="-200"
    x-height="665"
    cap-height="800"
    bbox="-0.336346 -200.332 989.5 800.333"
    underline-thickness="20"
    underline-position="-123"
    unicode-range="U+0020-U+00B5"
  />
<missing-glyph horiz-adv-x="500" 
d="M63 0v800h375v-800h-375zM125 63h250v675h-250v-675z" />
    <glyph glyph-name=".notdef" horiz-adv-x="500" 
d="M63 0v800h375v-800h-375zM125 63h250v675h-250v-675z" />
    <glyph glyph-name="space" unicode=" " horiz-adv-x="1000" 
 />
    <glyph glyph-name="asterisk" unicode="*" horiz-adv-x="491" 
d="M499 501l22.999 26c26.667 31.333 40 67.333 40 108c0 50 -19 91.667 -57 125c-34 29.333 -74 42.666 -120 39.999c-40 -3.33301 -74.667 -19.666 -104 -48.999c-29.333 29.333 -64 45.666 -104 48.999c-46 2.66699 -86 -10.666 -120 -39.999
c-38 -33.333 -57 -75 -57 -125c0 -40.667 13.333 -76.667 40 -108l23 -26l-23 -26c-26.667 -30.667 -40 -66.667 -40 -108c0 -50 19 -91.667 57 -125c34 -29.333 74 -42.333 120 -39c40 2.66699 74.667 18.667 104 48c32 -32.667 71 -49 117 -49
c40.667 0 76.334 13.333 107.001 40c38 33.333 57 75 57 125c0 41.333 -13.333 77.333 -40 108zM467.999 429c15.333 -18 23 -38.667 23 -62c0 -28.667 -10.667 -52.334 -32 -71.001c-18 -15.333 -38.667 -23 -62 -23c-28.667 0 -52.334 10.667 -71.001 32l-45 52l-45 -52
c-18.667 -21.333 -42.334 -32 -71.001 -32c-23.333 0 -44 7.66699 -62 23c-21.333 18.667 -32 42.334 -32 71.001c0 23.333 7.66699 44 23 62l62 72l-62 73c-15.333 17.333 -23 37.666 -23 60.999c0 28.667 10.667 52.334 32 71.001c18 15.333 38.667 23 62 23
c28.667 0 52.334 -10.667 71.001 -32l45 -52l45 52c18.667 21.333 42.334 32 71.001 32c23.333 0 44 -7.66699 62 -23c21.333 -18.667 32 -42.334 32 -71.001c0 -23.333 -7.66699 -43.666 -23 -60.999l-62 -73z" />
    <glyph glyph-name="hyphen" unicode="-" horiz-adv-x="674" 
d="M580 531h-415c-45.333 0 -84.166 -16 -116.499 -48s-48.5 -70.667 -48.5 -116s16.167 -84.166 48.5 -116.499s71.166 -48.5 116.499 -48.5h415c45.333 0 84.166 16.167 116.499 48.5s48.5 71.166 48.5 116.499s-16.167 84 -48.5 116s-71.166 48 -116.499 48zM580 273
h-415c-26 0 -48.167 9.16699 -66.5 27.5s-27.5 40.5 -27.5 66.5s9.16699 48.167 27.5 66.5s40.5 27.5 66.5 27.5h415c26 0 48.167 -9.16699 66.5 -27.5s27.5 -40.5 27.5 -66.5s-9.16699 -48.167 -27.5 -66.5s-40.5 -27.5 -66.5 -27.5z" />
    <glyph glyph-name="hyphen" unicode="&#x2010;" horiz-adv-x="674" 
d="M580 531h-415c-45.333 0 -84.166 -16 -116.499 -48s-48.5 -70.667 -48.5 -116s16.167 -84.166 48.5 -116.499s71.166 -48.5 116.499 -48.5h415c45.333 0 84.166 16.167 116.499 48.5s48.5 71.166 48.5 116.499s-16.167 84 -48.5 116s-71.166 48 -116.499 48zM580 273
h-415c-26 0 -48.167 9.16699 -66.5 27.5s-27.5 40.5 -27.5 66.5s9.16699 48.167 27.5 66.5s40.5 27.5 66.5 27.5h415c26 0 48.167 -9.16699 66.5 -27.5s27.5 -40.5 27.5 -66.5s-9.16699 -48.167 -27.5 -66.5s-40.5 -27.5 -66.5 -27.5z" />
    <glyph glyph-name="period" unicode="." horiz-adv-x="392" 
d="M165 264c-45.333 0 -84.166 -16.167 -116.499 -48.5s-48.5 -71.166 -48.5 -116.499s16.167 -84.166 48.5 -116.499s71.166 -48.5 116.499 -48.5s84.166 16.167 116.499 48.5s48.5 71.166 48.5 116.499s-16.167 84.166 -48.5 116.499s-71.166 48.5 -116.499 48.5zM165 5
c-26 0 -48.167 9.16699 -66.5 27.5s-27.5 40.5 -27.5 66.5s9.16699 48.167 27.5 66.5s40.5 27.5 66.5 27.5s48.167 -9.16699 66.5 -27.5s27.5 -40.5 27.5 -66.5s-9.16699 -48.167 -27.5 -66.5s-40.5 -27.5 -66.5 -27.5z" />
    <glyph glyph-name="slash" unicode="/" horiz-adv-x="491" 
d="M463 786c-21.333 9.33301 -43.333 13.998 -66 13.998c-32 0 -61.833 -8.83301 -89.5 -26.5s-48.167 -41.834 -61.5 -72.501l-232 -537c-9.33301 -20.667 -14 -42.334 -14 -65.001c-0 -32 8.83301 -61.833 26.5 -89.5s41.834 -48.167 72.501 -61.5
c21.333 -9.33301 43.333 -14 66 -14c32 0 61.833 8.83301 89.5 26.5s48.167 41.834 61.5 72.501l232 537c9.33301 20.667 14 42.334 14 65.001c0 32.667 -8.83301 62.834 -26.5 90.501s-41.834 47.834 -72.501 60.501zM484 597.998l-233 -537
c-16 -37.333 -44.667 -56 -86 -56c-13.333 0 -26 2.33301 -38 7c-37.333 16.667 -56 45.667 -56 87c0 12.667 2.33301 25 7 37l233 537c16 37.333 44.667 56 86 56c13.333 0 26 -2.33301 38 -7c37.333 -16.667 56 -45.667 56 -87c0 -12.667 -2.33301 -25 -7 -37z" />
    <glyph glyph-name="zero" unicode="0" horiz-adv-x="791" 
d="M259 466v-273h278l65 75v273h-278zM697 800h-416c-50 0 -91.667 -19 -125 -57l-116 -134c-26.667 -30.667 -40 -66.667 -40 -108v-402c0 -45.333 16.167 -84.166 48.5 -116.499s71.166 -48.5 116.499 -48.5h415c50.667 0 92.334 19 125.001 57l116 134
c26.667 30.667 40 66.667 40 108v402c0 45.333 -16 84.166 -48 116.499s-70.667 48.5 -116 48.5zM791 233c0 -23.333 -7.66797 -44 -23.001 -62l-116 -134c-19.333 -21.333 -43.333 -32 -72 -32h-415c-26 0 -48.167 9.16699 -66.5 27.5s-27.5 40.5 -27.5 66.5v402
c0 23.333 7.66699 44 23 62l116 134c18.667 21.333 42.334 32 71.001 32h416c26 0 48.167 -9.16699 66.5 -27.5s27.5 -40.5 27.5 -66.5v-402z" />
    <glyph glyph-name="one" unicode="1" horiz-adv-x="375" 
d="M281 800h-116c-45.333 0 -84.166 -16.167 -116.499 -48.5s-48.5 -71.166 -48.5 -116.499c0 -36 10.833 -68.5 32.5 -97.5s49.5 -48.5 83.5 -58.5v-380c0 -45.333 16.167 -84.166 48.5 -116.499s71.166 -48.5 116.499 -48.5s84.166 16.167 116.499 48.5
s48.5 71.166 48.5 116.499v536c0 45.333 -16.167 84.166 -48.5 116.499s-71.166 48.5 -116.499 48.5zM375 99c0 -26 -9.16699 -48.167 -27.5 -66.5s-40.5 -27.5 -66.5 -27.5s-48.167 9.16699 -66.5 27.5s-27.5 40.5 -27.5 66.5v442h-22c-26 0 -48.167 9.16699 -66.5 27.5
s-27.5 40.5 -27.5 66.5s9.16699 48.167 27.5 66.5s40.5 27.5 66.5 27.5h116c26 0 48.167 -9.16699 66.5 -27.5s27.5 -40.5 27.5 -66.5v-536z" />
    <glyph glyph-name="two" unicode="2" horiz-adv-x="791" 
d="M861 367l0.000976562 268.001c0 45.333 -16 84.166 -48 116.499s-70.667 48.5 -116 48.5h-416c-50 0 -91.667 -19 -125 -57l-116 -134c-29.333 -34.667 -42.666 -74.667 -39.999 -120c3.33301 -45.333 22.166 -82.833 56.499 -112.5s74.5 -42.834 120.5 -39.501
c45.333 3.33301 82.666 22 111.999 56l67 77h176v-19l-116 -85c-34.667 -25.333 -56 -59.333 -64 -102h-187c-45.333 0 -84.166 -16.167 -116.499 -48.5s-48.5 -71.166 -48.5 -116.499s16.167 -84.166 48.5 -116.499s71.166 -48.5 116.499 -48.5h532
c45.333 0 84 16.167 116 48.5s48 71.166 48 116.499c0 56 -23 100.667 -69 134l2 1c44.667 32.667 67 77 67 133zM791.001 367.001c0 -32 -13 -57.334 -39 -76.001l-134 -98h79c26 0 48.167 -9.16699 66.5 -27.5s27.5 -40.5 27.5 -66.5s-9.16699 -48.167 -27.5 -66.5
s-40.5 -27.5 -66.5 -27.5h-532c-26 0 -48.167 9.16699 -66.5 27.5s-27.5 40.5 -27.5 66.5s9.16699 48.167 27.5 66.5s40.5 27.5 66.5 27.5h263c-6 12.667 -9 26 -9 40c0 32 13 57.333 39 76l144 106v126h-278l-88 -102c-18.667 -21.333 -42.334 -32 -71.001 -32
c-23.333 0 -44 7.66699 -62 23c-21.333 18.667 -32 42.334 -32 71.001c0 23.333 7.66699 44 23 62l116 134c18.667 21.333 42.334 32 71.001 32h416c26 0 48.167 -9.16699 66.5 -27.5s27.5 -40.5 27.5 -66.5v-268z" />
    <glyph glyph-name="three" unicode="3" horiz-adv-x="791" 
d="M796 370c43.333 33.333 65 77 65 131c0 41.333 -13.333 77.333 -40 108l-116 134c-32.667 38 -74.334 57 -125.001 57h-415c-45.333 0 -84.166 -16.167 -116.499 -48.5s-48.5 -71.166 -48.5 -116.499s16.167 -84.166 48.5 -116.499s71.166 -48.5 116.499 -48.5h288
c-24.667 -30.667 -37 -65 -37 -103c0 -38.667 12.333 -73 37 -103h-97l-67 77c-29.333 34 -66.666 52.667 -111.999 56c-46 3.33301 -86.167 -9.83398 -120.5 -39.501s-53.166 -67.167 -56.499 -112.5c-2.66699 -45.333 10.666 -85.333 39.999 -120l116 -134
c33.333 -38 75 -57 125 -57h416c45.333 0 84 16.167 116 48.5s48 71.166 48 116.499v134c0 40.667 -13.333 76.667 -40 108zM791 99c0 -26 -9.16699 -48.168 -27.5 -66.501s-40.5 -27.5 -66.5 -27.5h-416c-28.667 0 -52.334 10.667 -71.001 32l-116 134
c-15.333 18 -23 38.667 -23 62c0 28.667 10.667 52.334 32 71.001c18 15.333 38.667 23 62 23c28.667 0 52.334 -10.667 71.001 -32l88 -102h278v5l-93 107c-15.333 18 -23 38.667 -23 62c0 28.667 11 52.334 33 71.001c17.333 15.333 37.666 23 60.999 23
c10.667 0 21 -1.66699 31 -5l-74 85h-372c-26 0 -48.167 9.16699 -66.5 27.5s-27.5 40.5 -27.5 66.5s9.16699 48.167 27.5 66.5s40.5 27.5 66.5 27.5h415c28.667 0 52.667 -10.667 72 -32l116 -134c15.333 -18 23 -38.667 23 -62c0 -28.667 -11 -52.334 -33 -71.001
c-17.333 -15.333 -37.666 -23 -60.999 -23c-10.667 0 -21 1.66699 -31 5l102 -117c15.333 -18 23 -38.667 23 -62v-134z" />
    <glyph glyph-name="four" unicode="4" horiz-adv-x="791" 
d="M745 390l0.00292969 244.998c0 45.333 -16 84.166 -48 116.499s-71 48.5 -117 48.5h-299c-50 0 -91.667 -19 -125 -57l-116 -134c-26.667 -30.667 -40 -66.667 -40 -108v-268c0 -45.333 16.167 -84.166 48.5 -116.499s71.166 -48.5 116.499 -48.5h254
c7.33301 -38.667 26.166 -70.667 56.499 -96s65.166 -38 104.499 -38c41.333 0 77.333 13.5 108 40.5s49 60.833 55 101.5c34.667 10 63 29.5 85 58.5s33 61.833 33 98.5s-10.833 69.334 -32.5 98.001s-49.5 48.334 -83.5 59.001zM697.003 138.998h-22.001v-40
c0 -26 -9.33301 -48.167 -28 -66.5s-41 -27.5 -67 -27.5s-48.167 9.16699 -66.5 27.5s-27.5 40.5 -27.5 66.5v40h-321c-26 0 -48.167 9.16699 -66.5 27.5s-27.5 40.5 -27.5 66.5v268c0 23.333 7.66699 44 23 62l116 134c18.667 21.333 42.334 32 71.001 32h299
c26 0 48.333 -9.16699 67 -27.5s28 -40.5 28 -66.5v-308h22c26 0 48.167 -9.16699 66.5 -27.5s27.5 -40.5 27.5 -66.5s-9.16699 -48.167 -27.5 -66.5s-40.5 -27.5 -66.5 -27.5zM259.002 465.998v-139h227v214h-162z" />
    <glyph glyph-name="five" unicode="5" horiz-adv-x="791" 
d="M821 341l-116 134.002c-8 9.33301 -17.667 18 -29 26c46 33.333 69 78 69 134c0 45.333 -16 84.166 -48 116.499s-71 48.5 -117 48.5h-415c-45.333 0 -84.166 -16.167 -116.499 -48.5s-48.5 -71.166 -48.5 -116.499v-268c0 -43.333 15 -80.833 45 -112.5
s66.667 -48.834 110 -51.501c-26 -30.667 -39 -65.334 -39 -104.001c0 -45.333 16.167 -84.166 48.5 -116.499s71.166 -48.5 116.499 -48.5h416c45.333 0 84 16.167 116 48.5s48 71.166 48 116.499v134c0 40.667 -13.333 76.667 -40 108zM791 99.002
c0 -26 -9.16699 -48.167 -27.5 -66.5s-40.5 -27.5 -66.5 -27.5h-416c-26 0 -48.167 9.16699 -66.5 27.5s-27.5 40.5 -27.5 66.5s9.16699 48.167 27.5 66.5s40.5 27.5 66.5 27.5h321v5l-65 75h-372c-26 0 -48.167 9.16699 -66.5 27.5s-27.5 40.5 -27.5 66.5v268
c0 26 9.16699 48.167 27.5 66.5s40.5 27.5 66.5 27.5h415c26 0 48.333 -9.16699 67 -27.5s28 -40.5 28 -66.5s-9.33301 -48.167 -28 -66.5s-41 -27.5 -67 -27.5h-321v-80h321c28.667 0 52.667 -10.667 72 -32l116 -134c15.333 -18 23 -38.667 23 -62v-134z" />
    <glyph glyph-name="six" unicode="6" horiz-adv-x="792" 
d="M821 341l-115.999 134c-8.66699 10 -18.334 18.667 -29.001 26c46 33.333 69 78 69 134c0 45.333 -16 84.166 -48 116.499s-71 48.5 -117 48.5h-299c-50 0 -91.667 -19 -125 -57l-116 -134c-26.667 -30.667 -40 -66.667 -40 -108v-402
c0 -45.333 16.167 -84.166 48.5 -116.499s71.166 -48.5 116.499 -48.5h415c50.667 0 92.334 19 125.001 57l116 134c26.667 30.667 40 66.667 40 108s-13.333 77.333 -40 108zM768.001 171l-116 -134.001c-19.333 -21.333 -43.333 -32 -72 -32h-415
c-26 0 -48.167 9.16699 -66.5 27.5s-27.5 40.5 -27.5 66.5v402c0 23.333 7.66699 44 23 62l116 134c18.667 21.333 42.334 32 71.001 32h299c26 0 48.333 -9.16699 67 -27.5s28 -40.5 28 -66.5s-9.33301 -48.167 -28 -66.5s-41 -27.5 -67 -27.5h-256l-65 -75v-273h278l35 40
l-63 72c-15.333 18 -23 38.667 -23 62c0 28.667 11 52.334 33 71.001c17.333 15.333 37.666 23 60.999 23c28.667 0 52.667 -10.667 72 -32l116 -134c15.333 -18 23 -38.667 23 -62s-7.66699 -44 -23 -62z" />
    <glyph glyph-name="seven" unicode="7" horiz-adv-x="791" 
d="M697 800l-531.999 -0.000976562c-45.333 0 -84.166 -16.167 -116.499 -48.5s-48.5 -71.166 -48.5 -116.499v-134c0 -45.333 16.167 -84.166 48.5 -116.499s71.166 -48.5 116.499 -48.5c40 0 75.167 12.833 105.5 38.5s49.166 57.5 56.499 95.5h126
c-24.667 -30 -37 -64.333 -37 -103v-268c0 -45.333 16 -84.166 48 -116.499s70.667 -48.5 116 -48.5c46 0 85 16.167 117 48.5s48 71.166 48 116.499v207l76 87c26.667 31.333 40 67.333 40 108v134c0 45.333 -16 84.166 -48 116.499s-70.667 48.5 -116 48.5z
M791.001 500.999c0 -23.333 -7.66699 -44 -23 -62l-93 -107v-233c0 -26 -9.33301 -48.167 -28 -66.5s-41 -27.5 -67 -27.5s-48.167 9.16699 -66.5 27.5s-27.5 40.5 -27.5 66.5v268c0 23.333 7.66699 44 23 62l93 107v5h-343v-40c0 -26 -9.16699 -48.167 -27.5 -66.5
s-40.5 -27.5 -66.5 -27.5s-48.167 9.16699 -66.5 27.5s-27.5 40.5 -27.5 66.5v134c0 26 9.16699 48.167 27.5 66.5s40.5 27.5 66.5 27.5h532c26 0 48.167 -9.16699 66.5 -27.5s27.5 -40.5 27.5 -66.5v-134z" />
    <glyph glyph-name="eight" unicode="8" horiz-adv-x="791" 
d="M259 193h278l65 75v5h-343v-80zM259 466v-5h343v80h-278zM697 800h-416c-50 0 -91.667 -19 -125 -57l-116 -134c-26.667 -30.667 -40 -66.667 -40 -108v-402c0 -45.333 16.167 -84.166 48.5 -116.499s71.166 -48.5 116.499 -48.5h415c50.667 0 92.334 19 125.001 57
l116 134c26.667 30.667 40 66.667 40 108v402c0 45.333 -16 84.166 -48 116.499s-70.667 48.5 -116 48.5zM791 233c0 -23.333 -7.66797 -44 -23.001 -62l-116 -134c-19.333 -21.333 -43.333 -32 -72 -32h-415c-26 0 -48.167 9.16699 -66.5 27.5s-27.5 40.5 -27.5 66.5v402
c0 23.333 7.66699 44 23 62l116 134c18.667 21.333 42.334 32 71.001 32h416c26 0 48.167 -9.16699 66.5 -27.5s27.5 -40.5 27.5 -66.5v-402z" />
    <glyph glyph-name="nine" unicode="9" horiz-adv-x="791" 
d="M281 800c-50 0 -91.667 -19 -125 -57l-116 -134c-26.667 -30.667 -40 -66.667 -40 -108v-134c-0 -40.667 13.333 -76.667 40 -108l116 -134c33.333 -38 75 -57 125 -57c41.333 0 77.333 13.333 108 40c14.667 12.667 27 28.667 37 48
c-6.66699 -18.667 -10 -37.667 -10 -57c0 -50 19 -91.667 57 -125c34 -29.333 73.667 -42.666 119 -39.999c45.333 3.33301 83 22.333 113 57l116 134c26.667 30.667 40 66.667 40 108v402c0 45.333 -16 84.166 -48 116.499s-70.667 48.5 -116 48.5h-416zM697 729
c26 0 48.166 -9.16699 66.499 -27.5s27.5 -40.5 27.5 -66.5v-402c0 -23.333 -7.66699 -44 -23 -62l-116 -134c-19.333 -21.333 -43.333 -32 -72 -32c-23.333 0 -43.666 7.66699 -60.999 23c-22 18.667 -33 42.334 -33 71.001c0 23.333 7.66699 44 23 62l93 107v273h-278
l-65 -75v-64l93 -107c15.333 -18 23 -38.667 23 -62c0 -28.667 -10.667 -52.334 -32 -71.001c-18 -15.333 -38.667 -23 -62 -23c-28.667 0 -52.334 10.667 -71.001 32l-116 134c-15.333 18 -23 38.667 -23 62v134c0 23.333 7.66699 44 23 62l116 134
c18.667 21.333 42.334 32 71.001 32h416z" />
    <glyph glyph-name="question" unicode="?" horiz-adv-x="1040" 
d="M812 800l-530.999 0.00292969c-50 0 -91.667 -19 -125 -57l-116 -134c-29.333 -34 -42.666 -73.667 -39.999 -119c3.33301 -46 22.166 -83.833 56.499 -113.5s74.166 -42.834 119.499 -39.501c46 3.33301 83.667 22 113 56l67 78h96
c-24.667 -30.667 -37 -65.334 -37 -104.001v-124c-24.667 14 -51.667 21 -81 21c-45.333 0 -84 -16.167 -116 -48.5s-48 -71.166 -48 -116.499s16 -84 48 -116s70.667 -48 116 -48c44 0 81.833 15 113.5 45s48.834 66.667 51.501 110c25.333 -14 52.333 -21 81 -21
c45.333 0 84.166 16 116.499 48s48.5 70.667 48.5 116v39l150 87c54.667 31.333 82 78.666 82 141.999v134c0 45.333 -16 84.166 -48 116.499s-71 48.5 -117 48.5zM334.001 5.00293c-26 0 -48.167 9.16699 -66.5 27.5s-27.5 40.5 -27.5 66.5s9.16699 48.167 27.5 66.5
s40.5 27.5 66.5 27.5s48.333 -9.16699 67 -27.5s28 -40.5 28 -66.5s-9.33301 -48.167 -28 -66.5s-41 -27.5 -67 -27.5zM907.001 501.003c0 -36 -16 -63.001 -48 -81.001l-185 -107v-80c0 -26 -9.16699 -48.167 -27.5 -66.5s-40.5 -27.5 -66.5 -27.5
s-48.167 9.16699 -66.5 27.5s-27.5 40.5 -27.5 66.5v134c0 36.667 15.667 64 47 82l160 92h-369l-88 -101c-18.667 -22 -42.334 -33 -71.001 -33c-23.333 0 -44 7.66699 -62 23c-21.333 18.667 -32 42.334 -32 71.001c0 23.333 7.66699 44 23 62l116 134
c18.667 21.333 42.334 32 71.001 32h531c26 0 48.333 -9.16699 67 -27.5s28 -40.5 28 -66.5v-134z" />
    <glyph glyph-name="A" unicode="A" 
d="M937 609l-115.995 134c-32.667 38 -74 57 -124 57h-416c-50 0 -91.667 -19 -125 -57l-116 -134c-26.667 -30.667 -40 -66.667 -40 -108v-402c0 -45.333 16.167 -84.166 48.5 -116.499s71.166 -48.5 116.499 -48.5s84.166 16.167 116.499 48.5s48.5 71.166 48.5 116.499
v51c21.333 -10 43.666 -15 66.999 -15h251v-36c0 -45.333 16.167 -84.166 48.5 -116.499s71.166 -48.5 116.499 -48.5s84.166 16.167 116.499 48.5s48.5 71.166 48.5 116.499v402c0 41.333 -13.667 77.333 -41 108zM907.005 99c0 -26 -9.16895 -48.167 -27.502 -66.5
s-40.5 -27.5 -66.5 -27.5s-48.167 9.16699 -66.5 27.5s-27.5 40.5 -27.5 66.5v107h-322c-26 0 -48.167 9.16699 -66.5 27.5s-27.5 40.5 -27.5 66.5s9.16699 48.167 27.5 66.5s40.5 27.5 66.5 27.5h322v72l-65 75h-330l-65 -75v-367c0 -26 -9.16699 -48.167 -27.5 -66.5
s-40.5 -27.5 -66.5 -27.5s-48.167 9.16699 -66.5 27.5s-27.5 40.5 -27.5 66.5v402c0 23.333 7.66699 44 23 62l116 134c18.667 21.333 42.334 32 71.001 32h416c28.667 0 52.334 -10.667 71.001 -32l116 -134c15.333 -18 23 -38.667 23 -62v-402z" />
    <glyph glyph-name="B" unicode="B" 
d="M259 193h460v5l-94 107c-15.333 18 -23 38.667 -23 62s7.66699 44 23 62l94 107v5h-460v-348zM442 461c26 0 48.167 -9.16699 66.5 -27.5s27.5 -40.5 27.5 -66.5s-9.16699 -48.167 -27.5 -66.5s-40.5 -27.5 -66.5 -27.5c-26.667 0 -49.167 9.16699 -67.5 27.5
s-27.5 40.5 -27.5 66.5s9.16699 48.167 27.5 66.5s40.833 27.5 67.5 27.5zM978 501v134c0 45.333 -16.167 84.166 -48.5 116.499s-71.166 48.5 -116.499 48.5h-648c-45.333 0 -84.166 -16.167 -116.499 -48.5s-48.5 -71.166 -48.5 -116.499v-536
c0 -45.333 16.167 -84.166 48.5 -116.499s71.166 -48.5 116.499 -48.5h648c45.333 0 84.166 16.167 116.499 48.5s48.5 71.166 48.5 116.499v134c0 40.667 -13.667 76.667 -41 108l-22 26l22 26c27.333 31.333 41 67.333 41 108zM907 501c0 -23.333 -7.66699 -44 -23 -62
l-63 -72l63 -72c15.333 -18 23 -38.667 23 -62v-134c0 -26 -9.16699 -48.167 -27.5 -66.5s-40.5 -27.5 -66.5 -27.5h-648c-26 0 -48.167 9.16699 -66.5 27.5s-27.5 40.5 -27.5 66.5v536c0 26 9.16699 48.167 27.5 66.5s40.5 27.5 66.5 27.5h648
c26 0 48.167 -9.16699 66.5 -27.5s27.5 -40.5 27.5 -66.5v-134z" />
    <glyph glyph-name="C" unicode="C" 
d="M813 264l-457 0.00390625l-26 30v146l26 30h457c45.333 0 84.166 16.167 116.499 48.5s48.5 71.166 48.5 116.499s-16.167 84.166 -48.5 116.499s-71.166 48.5 -116.499 48.5h-532c-50 0 -91.667 -19 -125 -57l-116 -134c-26.667 -30.667 -40 -66.667 -40 -108v-268
c-0 -41.333 13.333 -77.333 40 -108l116 -134c33.333 -38 75 -57 125 -57h532c45.333 0 84.166 16.167 116.499 48.5s48.5 71.166 48.5 116.499s-16.167 84.166 -48.5 116.499s-71.166 48.5 -116.499 48.5zM813 5.00391h-532c-28.667 0 -52.334 10.667 -71.001 32l-116 134
c-15.333 18 -23 38.667 -23 62v268c0 23.333 7.66699 44 23 62l116 134c18.667 21.333 42.334 32 71.001 32h532c26 0 48.167 -9.16699 66.5 -27.5s27.5 -40.5 27.5 -66.5s-9.16699 -48.167 -27.5 -66.5s-40.5 -27.5 -66.5 -27.5h-489l-65 -75v-198l65 -75h489
c26 0 48.167 -9.16699 66.5 -27.5s27.5 -40.5 27.5 -66.5s-9.16699 -48.167 -27.5 -66.5s-40.5 -27.5 -66.5 -27.5z" />
    <glyph glyph-name="D" unicode="D" 
d="M937 609l-116 134c-32.667 38 -74 57 -124 57h-532c-45.333 0 -84.166 -16.167 -116.499 -48.5s-48.5 -71.166 -48.5 -116.499c0 -56 23 -100.667 69 -134c-46 -32.667 -69 -77.334 -69 -134.001s23 -101.334 69 -134.001c-46 -33.333 -69 -78 -69 -134
c0 -45.333 16.167 -84.166 48.5 -116.499s71.166 -48.5 116.499 -48.5h532c50 0 91.333 19 124 57l116 134c27.333 30.667 41 66.667 41 108v268c0 41.333 -13.667 77.333 -41 108zM907 233c0 -23.333 -7.66699 -44 -23 -62l-116 -134
c-18.667 -21.333 -42.334 -32 -71.001 -32h-532c-26 0 -48.167 9.16699 -66.5 27.5s-27.5 40.5 -27.5 66.5s9.16699 48.167 27.5 66.5s40.5 27.5 66.5 27.5h489l65 75v198l-65 75h-489c-26 0 -48.167 9.16699 -66.5 27.5s-27.5 40.5 -27.5 66.5s9.16699 48.167 27.5 66.5
s40.5 27.5 66.5 27.5h532c28.667 0 52.334 -10.667 71.001 -32l116 -134c15.333 -18 23 -38.667 23 -62v-268zM71 367c0 26 9.16699 48.167 27.5 66.5s40.5 27.5 66.5 27.5s48.167 -9.16699 66.5 -27.5s27.5 -40.5 27.5 -66.5s-9.16699 -48.167 -27.5 -66.5
s-40.5 -27.5 -66.5 -27.5s-48.167 9.16699 -66.5 27.5s-27.5 40.5 -27.5 66.5z" />
    <glyph glyph-name="E" unicode="E" 
d="M978 367c0 56.667 -23.332 101.333 -69.999 134c46.667 33.333 70 78 70 134c0 45.333 -16.167 84.166 -48.5 116.499s-71.166 48.5 -116.499 48.5h-532c-50 0 -91.667 -19 -125 -57l-116 -134c-26.667 -30.667 -40 -66.667 -40 -108v-402
c0 -45.333 16.167 -84.166 48.5 -116.499s71.166 -48.5 116.499 -48.5h648c45.333 0 84.166 16.167 116.499 48.5s48.5 71.166 48.5 116.499c0 56 -23.333 100.667 -70 134c46.667 32.667 70 77.334 70 134.001zM813.001 540.999h-489.001l-65 -75v-273h554
c26 0 48.167 -9.16699 66.5 -27.5s27.5 -40.5 27.5 -66.5s-9.16699 -48.167 -27.5 -66.5s-40.5 -27.5 -66.5 -27.5h-648c-26 0 -48.167 9.16699 -66.5 27.5s-27.5 40.5 -27.5 66.5v402c0 23.333 7.66699 44 23 62l116 134c18.667 21.333 42.334 32 71.001 32h532
c26 0 48.167 -9.16699 66.5 -27.5s27.5 -40.5 27.5 -66.5s-9.16699 -48.167 -27.5 -66.5s-40.5 -27.5 -66.5 -27.5zM907 366.999c0 -26 -9.16699 -48.167 -27.5 -66.5s-40.5 -27.5 -66.5 -27.5h-233c-26 0 -48.167 9.16699 -66.5 27.5s-27.5 40.5 -27.5 66.5
s9.16699 48.167 27.5 66.5s40.5 27.5 66.5 27.5h233c26 0 48.167 -9.16699 66.5 -27.5s27.5 -40.5 27.5 -66.5z" />
    <glyph glyph-name="F" unicode="F" 
d="M757 470l56.001 0.00390625c45.333 0 84.166 16.167 116.499 48.5s48.5 71.166 48.5 116.499s-16.167 84.166 -48.5 116.499s-71.166 48.5 -116.499 48.5h-532c-50 0 -91.667 -19 -125 -57l-116 -134c-26.667 -30.667 -40 -66.667 -40 -108v-402
c0 -45.333 16.167 -84.166 48.5 -116.499s71.166 -48.5 116.499 -48.5s84.166 16.167 116.499 48.5s48.5 71.166 48.5 116.499v36h425c45.333 0 84.166 16.167 116.499 48.5s48.5 71.166 48.5 116.499s-16.167 84.166 -48.5 116.499s-71.166 48.5 -116.499 48.5
c-2.66699 0 -3.66699 1 -3 3c0.666992 1.33301 2.33398 2 5.00098 2zM755.001 394.004c26 0 48.166 -9.16699 66.499 -27.5s27.5 -40.5 27.5 -66.5s-9.16699 -48.167 -27.5 -66.5s-40.5 -27.5 -66.5 -27.5h-496v-107c0 -26 -9.16699 -48.167 -27.5 -66.5
s-40.5 -27.5 -66.5 -27.5s-48.167 9.16699 -66.5 27.5s-27.5 40.5 -27.5 66.5v402c0 23.333 7.66699 44 23 62l116 134c18.667 21.333 42.334 32 71.001 32h532c26 0 48.167 -9.16699 66.5 -27.5s27.5 -40.5 27.5 -66.5s-9.16699 -48.167 -27.5 -66.5
s-40.5 -27.5 -66.5 -27.5h-489l-65 -75v-72h496z" />
    <glyph glyph-name="G" unicode="G" 
d="M908 501c46.667 33.333 70 77.999 70 133.999c0 45.333 -16.167 84.166 -48.5 116.499s-71.166 48.5 -116.499 48.5h-532c-50 0 -91.667 -19 -125 -57l-116 -134c-26.667 -30.667 -40 -66.667 -40 -108v-402c0 -45.333 16.167 -84.166 48.5 -116.499
s71.166 -48.5 116.499 -48.5h532c50 0 91.333 19 124 57l116 134c27.333 30.667 41 66.667 41 108v134c0 56.667 -23.333 101.334 -70 134.001zM654 192.999l65 75v5h-139c-26 0 -48.167 9.16699 -66.5 27.5s-27.5 40.5 -27.5 66.5s9.16699 48.167 27.5 66.5
s40.5 27.5 66.5 27.5h233c26 0 48.167 -9.16699 66.5 -27.5s27.5 -40.5 27.5 -66.5v-134c0 -23.333 -7.66699 -44 -23 -62l-116 -134c-18.667 -21.333 -42.334 -32 -71.001 -32h-532c-26 0 -48.167 9.16699 -66.5 27.5s-27.5 40.5 -27.5 66.5v402c0 23.333 7.66699 44 23 62
l116 134c18.667 21.333 42.334 32 71.001 32h532c26 0 48.167 -9.16699 66.5 -27.5s27.5 -40.5 27.5 -66.5s-9.16699 -48.167 -27.5 -66.5s-40.5 -27.5 -66.5 -27.5h-489l-65 -75v-273h395z" />
    <glyph glyph-name="H" unicode="H" 
d="M813 800c-45.333 0 -84.166 -16.167 -116.499 -48.5s-48.5 -71.166 -48.5 -116.499v-103h-251c-23.333 0 -45.666 -5 -66.999 -15v118c0 45.333 -16.167 84.166 -48.5 116.499s-71.166 48.5 -116.499 48.5s-84.166 -16.167 -116.499 -48.5s-48.5 -71.166 -48.5 -116.499
v-536c0 -45.333 16.167 -84.166 48.5 -116.499s71.166 -48.5 116.499 -48.5s84.166 16.167 116.499 48.5s48.5 71.166 48.5 116.499v118c21.333 -10 43.666 -15 66.999 -15h251v-103c0 -45.333 16.167 -84.166 48.5 -116.499s71.166 -48.5 116.499 -48.5
s84.166 16.167 116.499 48.5s48.5 71.166 48.5 116.499v536c0 45.333 -16.167 84.166 -48.5 116.499s-71.166 48.5 -116.499 48.5zM259 99c0 -26 -9.16699 -48.167 -27.5 -66.5s-40.5 -27.5 -66.5 -27.5s-48.167 9.16699 -66.5 27.5s-27.5 40.5 -27.5 66.5v536
c0 26 9.16699 48.167 27.5 66.5s40.5 27.5 66.5 27.5s48.167 -9.16699 66.5 -27.5s27.5 -40.5 27.5 -66.5v-536zM907 99c0 -26 -9.16699 -48.167 -27.5 -66.5s-40.5 -27.5 -66.5 -27.5s-48.167 9.16699 -66.5 27.5s-27.5 40.5 -27.5 66.5v174h-322
c-26 0 -48.167 9.16699 -66.5 27.5s-27.5 40.5 -27.5 66.5s9.16699 48.167 27.5 66.5s40.5 27.5 66.5 27.5h322v174c0 26 9.16699 48.167 27.5 66.5s40.5 27.5 66.5 27.5s48.167 -9.16699 66.5 -27.5s27.5 -40.5 27.5 -66.5v-536z" />
    <glyph glyph-name="I" unicode="I" horiz-adv-x="351" 
d="M330 246l-0.000976562 389.001c0 45.333 -16.167 84.166 -48.5 116.499s-71.166 48.5 -116.499 48.5s-84.166 -16.167 -116.499 -48.5s-48.5 -71.166 -48.5 -116.499v-536c0 -45.333 16.167 -84.166 48.5 -116.499s71.166 -48.5 116.499 -48.5h91
c46 0 85 16.167 117 48.5s48 71.166 48 116.499c0 32 -8.33301 61.167 -25 87.5s-38.667 46.166 -66 59.499zM255.999 5.00098l-91 -0.000976562c-26 0 -48.167 9.16699 -66.5 27.5s-27.5 40.5 -27.5 66.5v536c0 26 9.16699 48.167 27.5 66.5s40.5 27.5 66.5 27.5
s48.167 -9.16699 66.5 -27.5s27.5 -40.5 27.5 -66.5v-442c25.333 -0.666992 47 -10.167 65 -28.5s27 -40.166 27 -65.499c0 -26 -9.33301 -48.167 -28 -66.5s-41 -27.5 -67 -27.5z" />
    <glyph glyph-name="J" unicode="J" 
d="M813 800l-532.003 0.00195312c-50 0 -91.667 -19 -125 -57l-116 -134c-26.667 -30.667 -40 -66.667 -40 -108c0 -56 23.333 -100.667 70 -134c-46.667 -32.667 -70 -77.334 -70 -134.001c0 -41.333 13.333 -77.333 40 -108l116 -134c33.333 -38 75 -57 125 -57h299
c50.667 0 92.334 19 125.001 57l116 134c26.667 30.667 40 66.667 40 108v246c34.667 10 62.834 29.5 84.501 58.5s32.5 61.5 32.5 97.5c0 45.333 -16.167 84.166 -48.5 116.499s-71.166 48.5 -116.499 48.5zM812.997 541.002l-22 -0.00195312v-308
c0 -23.333 -7.66699 -44 -23 -62l-116 -134c-19.333 -21.333 -43.333 -32 -72 -32h-299c-28.667 0 -52.334 10.667 -71.001 32l-116 134c-15.333 18 -23 38.667 -23 62c0 28.667 10.667 52.334 32 71.001c18 15.333 38.667 23 62 23c28.667 0 52.334 -10.667 71.001 -32
l88 -102h213l65 75v273h-278l-88 -102c-18.667 -21.333 -42.334 -32 -71.001 -32c-23.333 0 -44 7.66699 -62 23c-21.333 18.667 -32 42.334 -32 71.001c0 23.333 7.66699 44 23 62l116 134c18.667 21.333 42.334 32 71.001 32h532c26 0 48.167 -9.16699 66.5 -27.5
s27.5 -40.5 27.5 -66.5s-9.16699 -48.167 -27.5 -66.5s-40.5 -27.5 -66.5 -27.5z" />
    <glyph glyph-name="K" unicode="K" horiz-adv-x="919" 
d="M833 341c-32.667 38 -74.332 57 -124.999 57h-161l99 72h179c45.333 0 84 16.167 116 48.5s48 71.166 48 116.499s-16 84.166 -48 116.499s-70.667 48.5 -116 48.5h-233c-36 0 -68.333 -10.667 -97 -32l-155 -113c-4.66699 40.667 -22.667 75 -54 103
s-67.666 42 -108.999 42c-46 0 -85 -16.167 -117 -48.5s-48 -71.166 -48 -116.499v-536c0 -45.333 16 -84.166 48 -116.499s71 -48.5 117 -48.5c42.667 0 79.667 14.333 111 43s49 64 53 106c21.333 -10 44 -15 68 -15h224l67 -77c30 -34.667 67.667 -53.667 113 -57
c45.333 -2.66699 85.166 10.833 119.499 40.5s53.166 67.167 56.499 112.5s-10 85.333 -40 120zM271.002 99c0 -26 -9.16699 -48.167 -27.5 -66.5s-40.5 -27.5 -66.5 -27.5s-48.333 9.16699 -67 27.5s-28 40.5 -28 66.5v536c0 26 9.33301 48.167 28 66.5s41 27.5 67 27.5
s48.167 -9.16699 66.5 -27.5s27.5 -40.5 27.5 -66.5v-536zM353.002 577l184.001 134c16 12 34.333 18 55 18h233c26 0 48.167 -9.16699 66.5 -27.5s27.5 -40.5 27.5 -66.5s-9.16699 -48.167 -27.5 -66.5s-40.5 -27.5 -66.5 -27.5h-202l-158 -116
c-16.667 -12 -35.334 -18 -56.001 -18c-32 0 -57.333 13 -76 39c-12 16 -18 34.333 -18 55c0 32 12.667 57.333 38 76zM886.003 28c-17.333 -15.333 -37.666 -22.999 -60.999 -22.999c-28.667 0 -52.334 10.667 -71.001 32l-89 102h-256c-26 0 -48.167 9.16699 -66.5 27.5
s-27.5 40.5 -27.5 66.5s9.16699 48.167 27.5 66.5s40.5 27.5 66.5 27.5h299c28.667 0 52.667 -10.667 72 -32l116 -134c15.333 -18 23 -38.667 23 -62c0 -28.667 -11 -52.334 -33 -71.001z" />
    <glyph glyph-name="L" unicode="L" 
d="M813 532c-45.333 0 -84.1689 -16.168 -116.502 -48.501s-48.5 -71.166 -48.5 -116.499v-73l-27 -30h-291v371c0 45.333 -16.167 84.166 -48.5 116.499s-71.166 48.5 -116.499 48.5s-84.166 -16.167 -116.499 -48.5s-48.5 -71.166 -48.5 -116.499v-536
c0 -45.333 16.167 -84.166 48.5 -116.499s71.166 -48.5 116.499 -48.5h532c50 0 91.333 19 124 57l116 134c27.333 30.667 41 66.667 41 108v134c0 45.333 -16.167 84.166 -48.5 116.499s-71.166 48.5 -116.499 48.5zM906.997 232.999c0 -23.333 -7.66602 -44 -22.999 -62
l-116 -134c-18.667 -21.333 -42.334 -32 -71.001 -32h-532c-26 0 -48.167 9.16699 -66.5 27.5s-27.5 40.5 -27.5 66.5v536c0 26 9.16699 48.167 27.5 66.5s40.5 27.5 66.5 27.5s48.167 -9.16699 66.5 -27.5s27.5 -40.5 27.5 -66.5v-442h395l65 75v99
c0 26 9.16699 48.167 27.5 66.5s40.5 27.5 66.5 27.5s48.167 -9.16699 66.5 -27.5s27.5 -40.5 27.5 -66.5v-134z" />
    <glyph glyph-name="M" unicode="M" 
d="M813 800h-115.995c-50.667 0 -92.334 -19 -125.001 -57l-67 -77h-33l-66 77c-33.333 38 -75 57 -125 57h-116c-45.333 0 -84.166 -16.167 -116.499 -48.5s-48.5 -71.166 -48.5 -116.499v-536c0 -45.333 16.167 -84.166 48.5 -116.499s71.166 -48.5 116.499 -48.5
s84.166 16.167 116.499 48.5s48.5 71.166 48.5 116.499v92c9.33301 -35.333 28.666 -64.666 57.999 -87.999s63 -35 101 -35s71.667 11.667 101 35s48.666 52.666 57.999 87.999v-92c0 -45.333 16.167 -84.166 48.5 -116.499s71.166 -48.5 116.499 -48.5
s84.166 16.167 116.499 48.5s48.5 71.166 48.5 116.499v536c0 45.333 -16.167 84.166 -48.5 116.499s-71.166 48.5 -116.499 48.5zM489.005 139c-26 0 -48.167 9.16699 -66.5 27.5s-27.5 40.5 -27.5 66.5s9.16699 48.167 27.5 66.5s40.5 27.5 66.5 27.5
s48.167 -9.16699 66.5 -27.5s27.5 -40.5 27.5 -66.5s-9.16699 -48.167 -27.5 -66.5s-40.5 -27.5 -66.5 -27.5zM907.005 99c0 -26 -9.16699 -48.167 -27.5 -66.5s-40.5 -27.5 -66.5 -27.5s-48.167 9.16699 -66.5 27.5s-27.5 40.5 -27.5 66.5v418l-67 -78
c-19.333 -21.333 -43.333 -32 -72 -32h-183c-28.667 0 -52.334 10.667 -71.001 32l-67 78v-418c0 -26 -9.16699 -48.167 -27.5 -66.5s-40.5 -27.5 -66.5 -27.5s-48.167 9.16699 -66.5 27.5s-27.5 40.5 -27.5 66.5v536c0 26 9.16699 48.167 27.5 66.5s40.5 27.5 66.5 27.5
h116c28.667 0 52.334 -10.667 71.001 -32l88 -102h97l88 102c19.333 21.333 43.333 32 72 32h116c26 0 48.167 -9.16699 66.5 -27.5s27.5 -40.5 27.5 -66.5v-536z" />
    <glyph glyph-name="N" unicode="N" 
d="M813 800c-42 0 -78.4971 -14 -109.497 -42s-49.167 -62.333 -54.5 -103l-154 113c-29.333 21.333 -62 32 -98 32h-232c-45.333 0 -84.166 -16.167 -116.499 -48.5s-48.5 -71.166 -48.5 -116.499v-536c0 -45.333 16.167 -84.166 48.5 -116.499s71.166 -48.5 116.499 -48.5
s84.166 16.167 116.499 48.5s48.5 71.166 48.5 116.499v371h13l140 -102c29.333 -21.333 61.666 -32 96.999 -32c23.333 0 46 5 68 15v-252c0 -45.333 16.167 -84.166 48.5 -116.499s71.166 -48.5 116.499 -48.5s84.166 16.167 116.499 48.5s48.5 71.166 48.5 116.499v536
c0 45.333 -16.167 84.166 -48.5 116.499s-71.166 48.5 -116.499 48.5zM656.003 446c-18.667 -26 -44.001 -39 -76.001 -39c-20 0 -38.333 6 -55 18l-159 116h-107v-442c0 -26 -9.16699 -48.167 -27.5 -66.5s-40.5 -27.5 -66.5 -27.5s-48.167 9.16699 -66.5 27.5
s-27.5 40.5 -27.5 66.5v536c0 26 9.16699 48.167 27.5 66.5s40.5 27.5 66.5 27.5h232c20.667 0 39.334 -6 56.001 -18l183 -134c26 -18.667 39 -44 39 -76c0 -20.667 -6.33301 -39 -19 -55zM907.002 99c0 -26 -9.16699 -48.167 -27.5 -66.5s-40.5 -27.5 -66.5 -27.5
s-48.167 9.16699 -66.5 27.5s-27.5 40.5 -27.5 66.5v536c0 26 9.16699 48.167 27.5 66.5s40.5 27.5 66.5 27.5s48.167 -9.16699 66.5 -27.5s27.5 -40.5 27.5 -66.5v-536z" />
    <glyph glyph-name="O" unicode="O" 
d="M259 466v-273h395l65 75v273h-395zM489 461c26 0 48.167 -9.16699 66.5 -27.5s27.5 -40.5 27.5 -66.5s-9.16699 -48.167 -27.5 -66.5s-40.5 -27.5 -66.5 -27.5s-48.167 9.16699 -66.5 27.5s-27.5 40.5 -27.5 66.5s9.16699 48.167 27.5 66.5s40.5 27.5 66.5 27.5zM813 800
h-532c-50 0 -91.667 -19 -125 -57l-116 -134c-26.667 -30.667 -40 -66.667 -40 -108v-402c0 -45.333 16.167 -84.166 48.5 -116.499s71.166 -48.5 116.499 -48.5h532c50 0 91.333 19 124 57l116 134c27.333 30.667 41 66.667 41 108v402
c0 45.333 -16.167 84.166 -48.5 116.499s-71.166 48.5 -116.499 48.5zM907 233c0 -23.333 -7.66699 -44 -23 -62l-116 -134c-18.667 -21.333 -42.334 -32 -71.001 -32h-532c-26 0 -48.167 9.16699 -66.5 27.5s-27.5 40.5 -27.5 66.5v402c0 23.333 7.66699 44 23 62l116 134
c18.667 21.333 42.334 32 71.001 32h532c26 0 48.167 -9.16699 66.5 -27.5s27.5 -40.5 27.5 -66.5v-402z" />
    <glyph glyph-name="P" unicode="P" 
d="M937 609l-115.999 133.999c-32.667 38 -74 57 -124 57h-532c-45.333 0 -84.166 -16.167 -116.499 -48.5s-48.5 -71.166 -48.5 -116.499s16.167 -84.166 48.5 -116.499s71.166 -48.5 116.499 -48.5h456l27 -30v-42h-367c-50 0 -91.667 -19 -125 -57l-116 -134
c-26.667 -31.333 -40 -67.333 -40 -108c0 -50 19 -91.667 57 -125c30.667 -26.667 66.667 -40 108 -40c50 0 91.333 19 124 57l67 77h457c45.333 0 84.166 16.167 116.499 48.5s48.5 71.166 48.5 116.499v268c0 41.333 -13.667 77.333 -41 108zM907.001 232.999
c0 -26 -9.16797 -48.168 -27.501 -66.501s-40.5 -27.5 -66.5 -27.5h-489l-88 -102c-18.667 -21.333 -42.334 -32 -71.001 -32c-23.333 0 -44 7.66699 -62 23c-21.333 18.667 -32 42.334 -32 71.001c0 23.333 7.66699 44 23 62l116 134c18.667 21.333 42.334 32 71.001 32
h438v139l-65 75h-489c-26 0 -48.167 9.16699 -66.5 27.5s-27.5 40.5 -27.5 66.5s9.16699 48.167 27.5 66.5s40.5 27.5 66.5 27.5h532c28.667 0 52.334 -10.667 71.001 -32l116 -134c15.333 -18 23 -38.667 23 -62v-268z" />
    <glyph glyph-name="Q" unicode="Q" 
d="M937 207l-23.001 26l23 26c26.667 31.333 40 67.333 40 108v268c0 45.333 -16 84.166 -48 116.499s-70.667 48.5 -116 48.5h-532c-50 0 -91.667 -19 -125 -57l-116 -134c-26.667 -30.667 -40 -66.667 -40 -108v-402c0 -45.333 16.167 -84.166 48.5 -116.499
s71.166 -48.5 116.499 -48.5h415c44.667 0 83.334 16.333 116.001 49c32 -32 71 -48 117 -48c40.667 0 76.334 13.333 107.001 40c38 32.667 57 74 57 124c0 41.333 -13.333 77.333 -40 108zM906.999 367c0 -23.333 -7.66797 -43.666 -23.001 -60.999l-63 -73l63 -72
c15.333 -18 23 -38.667 23 -62c0 -28.667 -11 -52.334 -33 -71.001c-17.333 -15.333 -37.666 -23 -60.999 -23c-28.667 0 -52.667 10.667 -72 32l-45 52l-45 -52c-18.667 -21.333 -42.334 -32 -71.001 -32h-415c-26 0 -48.167 9.16699 -66.5 27.5s-27.5 40.5 -27.5 66.5v402
c0 23.333 7.66699 44 23 62l116 134c18.667 21.333 42.334 32 71.001 32h532c26 0 48.167 -9.16699 66.5 -27.5s27.5 -40.5 27.5 -66.5v-268zM258.998 466v-273h278l181 209v139h-394zM488.998 461c26 0 48.167 -9.16699 66.5 -27.5s27.5 -40.5 27.5 -66.5
s-9.16699 -48.167 -27.5 -66.5s-40.5 -27.5 -66.5 -27.5s-48.167 9.16699 -66.5 27.5s-27.5 40.5 -27.5 66.5s9.16699 48.167 27.5 66.5s40.5 27.5 66.5 27.5z" />
    <glyph glyph-name="R" unicode="R" 
d="M978 367l0.000976562 133.998c0 41.333 -13.667 77.333 -41 108l-116 134c-32.667 38 -74 57 -124 57h-532c-45.333 0 -84.166 -16.167 -116.499 -48.5s-48.5 -71.166 -48.5 -116.499v-536c0 -45.333 16.167 -84.166 48.5 -116.499s71.166 -48.5 116.499 -48.5
s84.166 16.167 116.499 48.5s48.5 71.166 48.5 116.499v226c9.33301 -35.333 28.666 -64.666 57.999 -87.999s63 -35 101 -35c14.667 0 29.667 2.33301 45 7c4.66699 -32 17.334 -60 38.001 -84l116 -134c33.333 -38 75 -57 125 -57c40.667 0 76.667 13.333 108 40
c38 33.333 57 75 57 125c0 40.667 -13.667 76.667 -41 108l-22 26l22 26c27.333 31.333 41 67.333 41 108zM489.001 272.998c-26 0 -48.167 9.16699 -66.5 27.5s-27.5 40.5 -27.5 66.5s9.16699 48.167 27.5 66.5s40.5 27.5 66.5 27.5s48.167 -9.16699 66.5 -27.5
s27.5 -40.5 27.5 -66.5s-9.16699 -48.167 -27.5 -66.5s-40.5 -27.5 -66.5 -27.5zM907.001 366.998c0 -23.333 -7.66699 -43.999 -23 -61.999l-63 -72l63 -72c15.333 -18 23 -38.667 23 -62c0 -28.667 -10.667 -52.334 -32 -71.001c-18 -15.333 -38.667 -23 -62 -23
c-28.667 0 -52.334 10.667 -71.001 32l-117 134c-15.333 18 -23 38.667 -23 62s7.66699 44 23 62l94 107v64l-65 75h-395v-442c0 -26 -9.16699 -48.167 -27.5 -66.5s-40.5 -27.5 -66.5 -27.5s-48.167 9.16699 -66.5 27.5s-27.5 40.5 -27.5 66.5v536
c0 26 9.16699 48.167 27.5 66.5s40.5 27.5 66.5 27.5h532c28.667 0 52.334 -10.667 71.001 -32l116 -134c15.333 -18 23 -38.667 23 -62v-134z" />
    <glyph glyph-name="S" unicode="S" 
d="M908 501c46.667 33.333 70 78 70 134c0 45.333 -16.167 84.166 -48.5 116.499s-71.166 48.5 -116.499 48.5h-532c-50 0 -91.667 -19 -125 -57l-116 -134c-26.667 -30.667 -40 -66.667 -40 -108v-134c0 -56.667 23 -101.334 69 -134.001c-46 -33.333 -69 -78 -69 -134
c0 -45.333 16.167 -84.166 48.5 -116.499s71.166 -48.5 116.499 -48.5h532c50 0 91.333 19 124 57l116 134c27.333 30.667 41 66.667 41 108v134c0 56.667 -23.333 101.334 -70 134.001zM907 233c0 -23.333 -7.66602 -44 -22.999 -62l-116 -134
c-18.667 -21.333 -42.334 -32 -71.001 -32h-532c-26 0 -48.167 9.16699 -66.5 27.5s-27.5 40.5 -27.5 66.5s9.16699 48.167 27.5 66.5s40.5 27.5 66.5 27.5h489l65 75v5h-139c-26 0 -48.167 9.16699 -66.5 27.5s-27.5 40.5 -27.5 66.5s9.16699 48.167 27.5 66.5
s40.5 27.5 66.5 27.5h233c26 0 48.167 -9.16699 66.5 -27.5s27.5 -40.5 27.5 -66.5v-134zM813.001 541h-489.001l-65 -75v-99c0 -26 -9.16699 -48.167 -27.5 -66.5s-40.5 -27.5 -66.5 -27.5s-48.167 9.16699 -66.5 27.5s-27.5 40.5 -27.5 66.5v134
c0 23.333 7.66699 44 23 62l116 134c18.667 21.333 42.334 32 71.001 32h532c26 0 48.167 -9.16699 66.5 -27.5s27.5 -40.5 27.5 -66.5s-9.16699 -48.167 -27.5 -66.5s-40.5 -27.5 -66.5 -27.5z" />
    <glyph glyph-name="T" unicode="T" 
d="M813 800l-531.998 0.00292969c-50 0 -91.667 -19 -125 -57l-116 -134c-29.333 -34.667 -42.666 -74.667 -39.999 -120c3.33301 -45.333 22.166 -82.833 56.499 -112.5s74.5 -42.834 120.5 -39.501c45.333 3.33301 82.666 22 111.999 56l35 40v-334
c0 -45.333 16.167 -84.166 48.5 -116.499s71.166 -48.5 116.499 -48.5s84.166 16.167 116.499 48.5s48.5 71.166 48.5 116.499v362c8.66699 -36 27.834 -65.833 57.501 -89.5s63.5 -35.5 101.5 -35.5c45.333 0 84.166 16.167 116.499 48.5s48.5 71.166 48.5 116.499v134
c0 45.333 -16.167 84.166 -48.5 116.499s-71.166 48.5 -116.499 48.5zM907.002 501.003c0 -26 -9.16699 -48.168 -27.5 -66.501s-40.5 -27.5 -66.5 -27.5s-48.167 9.16699 -66.5 27.5s-27.5 40.5 -27.5 66.5v40h-136v-442c0 -26 -9.16699 -48.167 -27.5 -66.5
s-40.5 -27.5 -66.5 -27.5s-48.167 9.16699 -66.5 27.5s-27.5 40.5 -27.5 66.5v442h-71l-88 -102c-18.667 -21.333 -42.334 -32 -71.001 -32c-23.333 0 -44 7.66699 -62 23c-21.333 18.667 -32 42.334 -32 71.001c0 23.333 7.66699 44 23 62l116 134
c18.667 21.333 42.334 32 71.001 32h532c26 0 48.167 -9.16699 66.5 -27.5s27.5 -40.5 27.5 -66.5v-134z" />
    <glyph glyph-name="U" unicode="U" horiz-adv-x="916" 
d="M821 800c-46 0 -85.167 -16.167 -117.5 -48.5s-48.5 -71.166 -48.5 -116.499v-371h-295l-27 31v340c0 45.333 -16.333 84.166 -49 116.499s-71.667 48.5 -117 48.5c-46 0 -85.333 -16.167 -118 -48.5s-49 -71.166 -49 -116.499v-402c0 -40.667 13.667 -76.667 41 -108
l117 -134c33.333 -37.333 75.333 -56 126 -56h537c46 0 85.333 16 118 48s49 70.667 49 116v536c0 45.333 -16.333 84.166 -49 116.499s-72 48.5 -118 48.5zM916 99c0 -26 -9.16797 -48.166 -27.501 -66.499s-40.833 -27.5 -67.5 -27.5h-537c-29.333 0 -53.333 11 -72 33
l-117 134c-16 17.333 -24 37.666 -24 60.999v402c0 26 9.33301 48.167 28 66.5s41.334 27.5 68.001 27.5c26 0 48.333 -9.16699 67 -27.5s28 -40.5 28 -66.5v-367l65 -75h399v442c0 26 9.33301 48.167 28 66.5s41 27.5 67 27.5c26.667 0 49.167 -9.16699 67.5 -27.5
s27.5 -40.5 27.5 -66.5v-536z" />
    <glyph glyph-name="V" unicode="V" 
d="M648 635v-206l-143 -165h-176v371c0 45.333 -16 84.166 -48 116.499s-70.667 48.5 -116 48.5s-84.166 -16.167 -116.499 -48.5s-48.5 -71.166 -48.5 -116.499v-536c0 -45.333 16.167 -84 48.5 -116s71.166 -48 116.499 -48h415c50 0 91.667 18.667 125 56l232 268
c26.667 31.333 40 67.333 40 108v268c0 45.333 -16 84.166 -48 116.499s-71 48.5 -117 48.5c-45.333 0 -84 -16.167 -116 -48.5s-48 -71.166 -48 -116.499zM812 729c26 0 48.334 -9.16797 67.001 -27.501s28 -40.5 28 -66.5v-268c0 -23.333 -7.66699 -43.666 -23 -60.999
l-233 -268c-18.667 -22 -42.334 -33 -71.001 -33h-415c-26 0 -48.167 9.16699 -66.5 27.5s-27.5 40.5 -27.5 66.5v536c0 26 9.16699 48.167 27.5 66.5s40.5 27.5 66.5 27.5s48.167 -9.16699 66.5 -27.5s27.5 -40.5 27.5 -66.5v-442h278l181 209v233
c0 26 9.16699 48.167 27.5 66.5s40.5 27.5 66.5 27.5z" />
    <glyph glyph-name="W" unicode="W" 
d="M812 800c-45.333 0 -84.001 -16.167 -116.001 -48.5s-48 -71.166 -48 -116.499v-160c-9.33301 36 -28.666 65.667 -57.999 89s-63 35 -101 35s-71.667 -11.5 -101 -34.5s-49 -52.5 -59 -88.5v159c0 45.333 -16 84.166 -48 116.499s-70.667 48.5 -116 48.5
s-84.166 -16.167 -116.499 -48.5s-48.5 -71.166 -48.5 -116.499v-536c0 -45.333 16.167 -84 48.5 -116s71.166 -48 116.499 -48c40 0 75.167 12.833 105.5 38.5s49.166 57.834 56.499 96.501c6.66699 -38.667 25.334 -70.834 56.001 -96.501s66 -38.5 106 -38.5h207
c50 0 91.667 18.667 125 56l116 134c26.667 31.333 40 67.333 40 108v402c0 45.333 -16 84.166 -48 116.499s-71 48.5 -117 48.5zM258.999 99c0 -26 -9.16699 -48.167 -27.5 -66.5s-40.5 -27.5 -66.5 -27.5s-48.167 9.16699 -66.5 27.5s-27.5 40.5 -27.5 66.5v536
c0 26 9.16699 48.167 27.5 66.5s40.5 27.5 66.5 27.5s48.167 -9.16699 66.5 -27.5s27.5 -40.5 27.5 -66.5v-536zM906.999 233c0 -23.333 -7.66602 -43.667 -22.999 -61l-117 -134c-18.667 -22 -42.334 -33 -71.001 -33h-207c-26 0 -48.333 9.16699 -67 27.5
s-28 40.5 -28 66.5v335c0 26 9.33301 48.167 28 66.5s41 27.5 67 27.5s48.167 -9.16699 66.5 -27.5s27.5 -40.5 27.5 -66.5v-241h70l65 75v367c0 26 9.16699 48.167 27.5 66.5s40.5 27.5 66.5 27.5s48.333 -9.16699 67 -27.5s28 -40.5 28 -66.5v-402z" />
    <glyph glyph-name="X" unicode="X" 
d="M937 207l-167.003 192l33 72h9c46 0 85 16 117 48s48 70.667 48 116s-16 84.166 -48 116.499s-71 48.5 -117 48.5h-116c-32 0 -61.667 -8.83301 -89 -26.5s-47.666 -41.167 -60.999 -70.5l-76 -168l-181 208c-29.333 34.667 -67 53.667 -113 57
c-45.333 2.66699 -85 -10.666 -119 -39.999c-38 -33.333 -57 -75 -57 -125c0 -40.667 13.333 -76.667 40 -108l139 -160l-139 -160c-26.667 -30.667 -40 -66.667 -40 -108c0 -50 19 -91.333 57 -124c34 -30 73.667 -43.333 119 -40c46 3.33301 83.667 22 113 56l183 212h33
l183 -212c32.667 -37.333 74.334 -56 125.001 -56c40.667 0 76.334 13.333 107.001 40c38 32.667 57 74 57 124c0 41.333 -13.333 77.333 -40 108zM873.997 28c-17.333 -15.333 -37.999 -23 -61.999 -23c-28.667 0 -52.334 11 -71.001 33l-204 235h-97l-204 -235
c-18.667 -22 -42.334 -33 -71.001 -33c-23.333 0 -44 7.66699 -62 23c-21.333 18.667 -32 42.334 -32 71.001c0 23.333 7.66699 44 23 62l178 206l-178 207c-15.333 17.333 -23 37.666 -23 60.999c0 28.667 10.667 52.334 32 71.001c18 15.333 38.667 23 62 23
c28.667 0 52.334 -10.667 71.001 -32l204 -236h74l97 213c16.667 36.667 45 55 85 55h116c26 0 48.333 -9.16699 67 -27.5s28 -40.5 28 -66.5s-9.33301 -48.167 -28 -66.5s-41 -27.5 -67 -27.5h-55l-70 -154l197 -226c15.333 -18 23 -38.667 23 -62
c0 -28.667 -11 -52.334 -33 -71.001z" />
    <glyph glyph-name="Y" unicode="Y" 
d="M812 800c-45.333 0 -84.002 -16.167 -116.002 -48.5s-48 -71.166 -48 -116.499v-72l-27 -31h-265l-27 31v72c0 45.333 -16 84.166 -48 116.499s-70.667 48.5 -116 48.5s-84.166 -16.167 -116.499 -48.5s-48.5 -71.166 -48.5 -116.499v-134
c0 -40.667 13.333 -76.667 40 -108l116 -134c33.333 -37.333 75 -56 125 -56h43v-104c0 -45.333 16 -84 48 -116s71 -48 117 -48c45.333 0 84 16 116 48s48 70.667 48 116v104h43c50.667 0 92.334 18.667 125.001 56l116 134c26.667 31.333 40 67.333 40 108v134
c0 45.333 -16 84.166 -48 116.499s-71 48.5 -117 48.5zM906.998 501c0 -23.333 -7.66504 -43.666 -22.998 -60.999l-117 -134c-18.667 -22 -42.334 -33 -71.001 -33h-113v-174c0 -26 -9.16699 -48.167 -27.5 -66.5s-40.5 -27.5 -66.5 -27.5s-48.333 9.16699 -67 27.5
s-28 40.5 -28 66.5v174h-113c-28.667 0 -52.334 11 -71.001 33l-116 134c-15.333 17.333 -23 37.666 -23 60.999v134c0 26 9.16699 48.167 27.5 66.5s40.5 27.5 66.5 27.5s48.167 -9.16699 66.5 -27.5s27.5 -40.5 27.5 -66.5v-99l65 -75h329l65 75v99
c0 26 9.16699 48.167 27.5 66.5s40.5 27.5 66.5 27.5s48.333 -9.16699 67 -27.5s28 -40.5 28 -66.5v-134z" />
    <glyph glyph-name="Z" unicode="Z" 
d="M812 264h-194.999c18.667 23.333 30 49.666 34 78.999c19.333 -5.33301 38.333 -7.33301 57 -6c45.333 3.33301 83 22 113 56l116 134c26.667 31.333 40 67.333 40 108c0 24 -5 47 -15 69c-13.333 29.333 -33.5 52.666 -60.5 69.999s-56.833 26 -89.5 26h-647
c-45.333 0 -84.166 -16.167 -116.499 -48.5s-48.5 -71.166 -48.5 -116.499s16.167 -84 48.5 -116s71.166 -48 116.499 -48h195c-18.667 -23.333 -30 -49.666 -34 -78.999c-14.667 4 -29.667 6 -45 6c-50.667 0 -92.334 -19 -125.001 -57l-116 -134
c-26.667 -30.667 -40 -66.667 -40 -108c0 -24 5 -46.667 15 -68c13.333 -29.333 33.5 -52.666 60.5 -69.999s56.833 -26 89.5 -26h647c46 0 85 16 117 48s48 70.667 48 116s-16 84.166 -48 116.499s-71 48.5 -117 48.5zM165.001 541c-26 0 -48.168 9.16602 -66.501 27.499
s-27.5 40.5 -27.5 66.5s9.16699 48.167 27.5 66.5s40.5 27.5 66.5 27.5h647c40.667 0 69.334 -18.333 86.001 -55c6 -12 9 -25 9 -39c0 -23.333 -7.66699 -43.666 -23 -60.999l-117 -134c-18.667 -22 -42.334 -33 -71.001 -33c-23.333 0 -43.666 7.66699 -60.999 23
c-22 18.667 -33 42.334 -33 71.001c0 13.333 3 26.666 9 39.999h-446zM583 366.999c0 -26 -9.16699 -48.167 -27.5 -66.5s-40.5 -27.5 -66.5 -27.5s-48.333 9.16699 -67 27.5s-28 40.5 -28 66.5s9.33301 48.167 28 66.5s41 27.5 67 27.5s48.167 -9.16699 66.5 -27.5
s27.5 -40.5 27.5 -66.5zM812 4.99902h-647c-40.667 0 -69.334 18.333 -86.001 55c-5.33301 12.667 -8 25.667 -8 39c0 23.333 7.66699 44 23 62l116 134c18.667 21.333 42.334 32 71.001 32c23.333 0 44 -7.66699 62 -23c21.333 -18.667 32 -42.334 32 -71.001
c0 -13.333 -3 -26.666 -9 -39.999h446c26 0 48.333 -9.16699 67 -27.5s28 -40.5 28 -66.5s-9.33301 -48.167 -28 -66.5s-41 -27.5 -67 -27.5z" />
    <glyph glyph-name="bracketleft" unicode="[" horiz-adv-x="375" 
d="M330 294v146.001l76 87c26.667 31.333 40 67.333 40 108c0 50 -19 91.667 -57 125c-34.667 29.333 -74.667 42.666 -120 39.999c-45.333 -3.33301 -83 -22.333 -113 -57v0l-116 -134c-26.667 -30.667 -40 -66.667 -40 -108v-268c-0 -41.333 13.333 -77.333 40 -108
l116 -134c33.333 -38 75 -57 125 -57c41.333 0 77.333 13.333 108 40c38 33.333 57 75 57 125c0 40.667 -13.333 76.667 -40 108zM343 28.001c-18 -15.333 -38.667 -22.999 -62 -22.999c-28.667 0 -52.334 10.667 -71.001 32l-116 134c-15.333 18 -23 38.667 -23 62v268
c0 23.333 7.66699 44 23 62l116 134c18.667 21.333 42.334 32 71.001 32c23.333 0 44 -7.66699 62 -23c21.333 -18.667 32 -42.334 32 -71.001c0 -23.333 -7.66699 -43.666 -23 -60.999l-93 -108v-198l93 -107c15.333 -18 23 -38.667 23 -62
c0 -28.667 -10.667 -52.334 -32 -71.001z" />
    <glyph glyph-name="bracketright" unicode="]" horiz-adv-x="379" 
d="M406 609l-116.999 134c-32.667 38 -74 57 -124 57c-41.333 0 -77.333 -13.333 -108 -40c-38 -32.667 -57 -74.334 -57 -125.001c0 -40.667 13.333 -76.667 40 -108l76 -87v-146l-76 -87c-26.667 -31.333 -40 -67.333 -40 -108c0 -50 19 -91.667 57 -125
c34 -29.333 74 -42.333 120 -39c45.333 2.66699 82.666 21.334 111.999 56.001l117 134c26.667 31.333 40 67.333 40 108v268c0 41.333 -13.333 77.333 -40 108zM375.001 233c0 -23.333 -7.66699 -44.001 -23 -62.001l-116 -134c-18.667 -21.333 -42.334 -32 -71.001 -32
c-23.333 0 -44 7.66699 -62 23c-21.333 18.667 -32 42.334 -32 71.001c0 23.333 7.66699 44 23 62l93 107v198l-93 108c-15.333 17.333 -23 37.666 -23 60.999c0 28.667 10.667 52.334 32 71.001c18 15.333 38.667 23 62 23c28.667 0 52.334 -10.667 71.001 -32l116 -134
c15.333 -18 23 -38.667 23 -62v-268z" />
    <glyph glyph-name="a" unicode="a" 
d="M812 666l-531 0.000976562c-50 0 -91.667 -19 -125 -57l-116 -134c-26.667 -30.667 -40 -66.667 -40 -108v-268c0 -45.333 16.167 -84 48.5 -116s71.166 -48 116.499 -48h415c45.333 0 84 16 116 48c32.667 -32 71.334 -48 116.001 -48c46 0 85 16 117 48
s48 70.667 48 116v402c0 45.333 -16 84.166 -48 116.499s-71 48.5 -117 48.5zM907 99.001c0 -26 -9.33398 -48.167 -28.001 -66.5s-41 -27.5 -67 -27.5s-48.167 9.16699 -66.5 27.5s-27.5 40.5 -27.5 66.5v308h-394l-65 -75v-139h321c26 0 48.167 -9.16699 66.5 -27.5
s27.5 -40.5 27.5 -66.5s-9.16699 -48.167 -27.5 -66.5s-40.5 -27.5 -66.5 -27.5h-415c-26 0 -48.167 9.16699 -66.5 27.5s-27.5 40.5 -27.5 66.5v268c0 23.333 7.66699 44 23 62l116 134c18.667 21.333 42.334 32 71.001 32h531c26 0 48.333 -9.16699 67 -27.5
s28 -40.5 28 -66.5v-402z" />
    <glyph glyph-name="b" unicode="b" 
d="M0 635l-0.000976562 -402.001c0 -40.667 13.333 -76.667 40 -108l116 -134c33.333 -37.333 75 -56 125 -56h531c46 0 85 16 117 48s48 70.667 48 116v268c0 41.333 -13.333 77.333 -40 108l-116 134c-33.333 38 -75 57 -125 57h-299c-23.333 0 -46.333 -5.33301 -69 -16
c-4 42 -21.5 77.5 -52.5 106.5s-67.833 43.5 -110.5 43.5c-45.333 0 -84.166 -16.167 -116.499 -48.5s-48.5 -71.166 -48.5 -116.499zM164.999 728.999c26 0 48.167 -9.16602 66.5 -27.499s27.5 -40.5 27.5 -66.5v-367l65 -75h394v139l-65 75h-256
c-26 0 -48.167 9.16699 -66.5 27.5s-27.5 40.5 -27.5 66.5s9.16699 48.167 27.5 66.5s40.5 27.5 66.5 27.5h299c28.667 0 52.334 -10.667 71.001 -32l117 -134c15.333 -18 23 -38.667 23 -62v-268c0 -26 -9.33301 -48.167 -28 -66.5s-41 -27.5 -67 -27.5h-531
c-28.667 0 -52.334 11 -71.001 33l-116 134c-15.333 17.333 -23 37.666 -23 60.999v402c0 26 9.16699 48.167 27.5 66.5s40.5 27.5 66.5 27.5z" />
    <glyph glyph-name="c" unicode="c" 
d="M812 264l-482.999 0.00195312v42l27 31h456c46 0 85 16 117 48s48 70.667 48 116s-16 84.166 -48 116.499s-71 48.5 -117 48.5h-531c-50 0 -91.667 -19 -125 -57l-116 -134c-26.667 -30.667 -40 -66.667 -40 -108v-268c0 -45.333 16.167 -84 48.5 -116
s71.166 -48 116.499 -48h647c46 0 85 16 117 48s48 70.667 48 116s-16 84.166 -48 116.499s-71 48.5 -117 48.5zM812.001 5.00195h-647.001c-26 0 -48.167 9.16699 -66.5 27.5s-27.5 40.5 -27.5 66.5v268c0 23.333 7.66699 44 23 62l116 134
c18.667 21.333 42.334 32 71.001 32h531c26 0 48.333 -9.16699 67 -27.5s28 -40.5 28 -66.5s-9.33301 -48.167 -28 -66.5s-41 -27.5 -67 -27.5h-488l-65 -75v-139h553c26 0 48.333 -9.16699 67 -27.5s28 -40.5 28 -66.5s-9.33301 -48.167 -28 -66.5s-41 -27.5 -67 -27.5z
" />
    <glyph glyph-name="d" unicode="d" 
d="M329 306l0.000976562 -42.002h483c46 0 85 -16.167 117 -48.5s48 -71.166 48 -116.499s-16 -84 -48 -116s-71 -48 -117 -48h-647c-45.333 0 -84.166 16 -116.499 48s-48.5 70.667 -48.5 116v268c0 41.333 13.333 77.333 40 108l116 134c33.333 38 75 57 125 57h370
c7.33301 38.667 26.166 70.667 56.499 96s65.166 38 104.499 38c46 0 85 -16.167 117 -48.5s48 -71.166 48 -116.499v-134c0 -45.333 -16 -84 -48 -116s-71 -48 -117 -48h-456zM718.001 634.998l0.000976562 -40h-437c-28.667 0 -52.334 -10.667 -71.001 -32l-116 -134
c-15.333 -18 -23 -38.667 -23 -62v-268c0 -26 9.16699 -48.167 27.5 -66.5s40.5 -27.5 66.5 -27.5h647c26 0 48.333 9.16699 67 27.5s28 40.5 28 66.5s-9.33301 48.167 -28 66.5s-41 27.5 -67 27.5h-553v139l65 75h488c26 0 48.333 9.16699 67 27.5s28 40.5 28 66.5v134
c0 26 -9.33301 48.167 -28 66.5s-41 27.5 -67 27.5s-48.167 -9.16699 -66.5 -27.5s-27.5 -40.5 -27.5 -66.5z" />
    <glyph glyph-name="e" unicode="e" horiz-adv-x="906" 
d="M937 125l-116.002 -134c-33.333 -37.333 -75 -56 -125 -56h-531c-45.333 0 -84.166 16 -116.499 48s-48.5 70.667 -48.5 116v268c0 41.333 13.333 77.333 40 108l116 134c33.333 38 75 57 125 57h183c50 0 91.333 -19 124 -57l117 -134c22.667 -26 35.667 -56.667 39 -92
c21.333 10 44.333 15 69 15c40.667 0 76.334 -13.333 107.001 -40c34.667 -30 53.667 -67.667 57 -113s-10 -85.333 -40 -120zM280.998 595c-28.667 0 -52.333 -10.668 -71 -32.001l-116 -134c-15.333 -18 -23 -38.667 -23 -62v-268c0 -26 9.16699 -48.167 27.5 -66.5
s40.5 -27.5 66.5 -27.5h531c28.667 0 52.334 11 71.001 33l117 134c15.333 17.333 23 37.666 23 60.999c0 28.667 -11 52.334 -33 71.001c-17.333 15.333 -38 23 -62 23c-28.667 0 -52.334 -10.667 -71.001 -32l-88 -102h-394v139l65 75h97l88 -101
c18.667 -22 42.334 -33 71.001 -33c23.333 0 44 7.66699 62 23c21.333 18.667 32 42.334 32 71.001c0 23.333 -7.66699 44 -23 62l-116 134c-18.667 21.333 -42.334 32 -71.001 32h-183z" />
    <glyph glyph-name="f" unicode="f" 
d="M977 635c0 45.333 -15.999 84.1689 -47.999 116.502s-71 48.5 -117 48.5h-531c-50 0 -91.667 -19 -125 -57l-116 -134c-26.667 -30.667 -40 -66.667 -40 -108v-402c0 -45.333 16.167 -84 48.5 -116s71.166 -48 116.499 -48s84 16 116 48s48 70.667 48 116v174
c33.333 -46.667 78.333 -70 135 -70h232c45.333 0 84.166 16 116.499 48s48.5 70.667 48.5 116c0 39.333 -12.333 74 -37 104c42.667 3.33301 78.834 20.666 108.501 51.999s44.5 68.666 44.5 111.999zM696.001 273.003h-232c-26 0 -48.167 9.16699 -66.5 27.5
s-27.5 40.5 -27.5 66.5s9.16699 48.167 27.5 66.5s40.5 27.5 66.5 27.5h232c26 0 48.167 -9.16699 66.5 -27.5s27.5 -40.5 27.5 -66.5s-9.16699 -48.167 -27.5 -66.5s-40.5 -27.5 -66.5 -27.5zM812.001 541.003h-488.001l-65 -75v-367c0 -26 -9.16699 -48.167 -27.5 -66.5
s-40.5 -27.5 -66.5 -27.5s-48.167 9.16699 -66.5 27.5s-27.5 40.5 -27.5 66.5v402c0 23.333 7.66699 44 23 62l116 134c18.667 21.333 42.334 32 71.001 32h531c26 0 48.333 -9.16699 67 -27.5s28 -40.5 28 -66.5s-9.33301 -48.167 -28 -66.5s-41 -27.5 -67 -27.5z" />
    <glyph glyph-name="g" unicode="g" 
d="M908 367c46.667 33.333 70.001 78.001 70.001 134.001c0 45.333 -16.167 84.166 -48.5 116.499s-71.166 48.5 -116.499 48.5h-532c-50 0 -91.667 -19 -125 -57l-116 -134c-26.667 -30.667 -40 -66.667 -40 -108v-268c0 -45.333 16.167 -84.166 48.5 -116.499
s71.166 -48.5 116.499 -48.5h299c24 0 47 5 69 15c4 -42 21.667 -77.333 53 -106s68.333 -43 111 -43h116c45.333 0 84.166 16.167 116.499 48.5s48.5 71.166 48.5 116.499v268c0 56 -23.333 100.667 -70 134zM421.001 193.001l87.999 102
c18.667 21.333 42.334 32 71.001 32h233c26 0 48.167 -9.16699 66.5 -27.5s27.5 -40.5 27.5 -66.5v-268c0 -26 -9.16699 -48.167 -27.5 -66.5s-40.5 -27.5 -66.5 -27.5h-116c-26 0 -48.333 9.16699 -67 27.5s-28 40.5 -28 66.5s9.33301 48.167 28 66.5s41 27.5 67 27.5h22
v80h-96l-88 -102c-18.667 -21.333 -42.334 -32 -71.001 -32h-299c-26 0 -48.167 9.16699 -66.5 27.5s-27.5 40.5 -27.5 66.5v268c0 23.333 7.66699 44 23 62l116 134c18.667 21.333 42.334 32 71.001 32h532c26 0 48.167 -9.16699 66.5 -27.5s27.5 -40.5 27.5 -66.5
s-9.16699 -48.167 -27.5 -66.5s-40.5 -27.5 -66.5 -27.5h-489l-65 -75v-139h162z" />
    <glyph glyph-name="h" unicode="h" 
d="M937 475l-116 133.999c-33.333 38 -75 57 -125 57h-299c-24 0 -46.667 -5 -68 -15c-4 42 -21.667 77.333 -53 106s-68.333 43 -111 43c-45.333 0 -84.166 -16.167 -116.499 -48.5s-48.5 -71.166 -48.5 -116.499v-536c0 -45.333 16.167 -84 48.5 -116
s71.166 -48 116.499 -48s84 16 116 48s48 70.667 48 116v252c22 -9.33301 44.667 -14 68 -14h224l27 -31v-207c0 -45.333 16 -84 48 -116s70.667 -48 116 -48c46 0 85 16 117 48s48 70.667 48 116v268c0 41.333 -13.333 77.333 -40 108zM259 98.999
c0 -26 -9.16699 -48.167 -27.5 -66.5s-40.5 -27.5 -66.5 -27.5s-48.167 9.16699 -66.5 27.5s-27.5 40.5 -27.5 66.5v536c0 26 9.16699 48.167 27.5 66.5s40.5 27.5 66.5 27.5s48.167 -9.16699 66.5 -27.5s27.5 -40.5 27.5 -66.5v-536zM907 98.999
c0 -26 -9.33398 -48.167 -28.001 -66.5s-41 -27.5 -67 -27.5s-48.167 9.16699 -66.5 27.5s-27.5 40.5 -27.5 66.5v233l-65 75h-256c-26 0 -48.167 9.16699 -66.5 27.5s-27.5 40.5 -27.5 66.5s9.16699 48.167 27.5 66.5s40.5 27.5 66.5 27.5h299
c28.667 0 52.334 -10.667 71.001 -32l117 -134c15.333 -18 23 -38.667 23 -62v-268z" />
    <glyph glyph-name="i" unicode="i" horiz-adv-x="259" 
d="M286 390c29.333 31.333 44 68.333 44 111c0 45.333 -16.167 84.166 -48.5 116.499s-71.166 48.5 -116.499 48.5s-84.166 -16.167 -116.499 -48.5s-48.5 -71.166 -48.5 -116.499c0 -42.667 14.333 -79.667 43 -111c-28.667 -31.333 -43 -68.333 -43 -111v-180
c0 -45.333 16.167 -84.166 48.5 -116.499s71.166 -48.5 116.499 -48.5s84.166 16.167 116.499 48.5s48.5 71.166 48.5 116.499v180c0 42.667 -14.667 79.667 -44 111zM165 595c26 0 48.167 -9.16699 66.5 -27.5s27.5 -40.5 27.5 -66.5s-9.16699 -48.167 -27.5 -66.5
s-40.5 -27.5 -66.5 -27.5s-48.167 9.16699 -66.5 27.5s-27.5 40.5 -27.5 66.5s9.16699 48.167 27.5 66.5s40.5 27.5 66.5 27.5zM259 99c0 -26 -9.16699 -48.167 -27.5 -66.5s-40.5 -27.5 -66.5 -27.5s-48.167 9.16699 -66.5 27.5s-27.5 40.5 -27.5 66.5v180
c0 26 9.16699 48.167 27.5 66.5s40.5 27.5 66.5 27.5s48.167 -9.16699 66.5 -27.5s27.5 -40.5 27.5 -66.5v-180z" />
    <glyph glyph-name="j" unicode="j" horiz-adv-x="675" 
d="M745 501c0 45.333 -16 84.1641 -48 116.497s-71 48.5 -117 48.5c-45.333 0 -84 -16.167 -116 -48.5s-48 -71.166 -48 -116.499c0 -42.667 14.333 -79.667 43 -111c-28.667 -31.333 -43 -68.333 -43 -111v-119l-27 -30h-224c-45.333 0 -84.166 -16.167 -116.499 -48.5
s-48.5 -71.166 -48.5 -116.499s16.167 -84.166 48.5 -116.499s71.166 -48.5 116.499 -48.5h299c50 0 91.667 19 125 57l116 134c26.667 30.667 40 66.667 40 108v180c0 42.667 -14.333 79.667 -43 111c28.667 31.333 43 68.333 43 111zM675 98.998
c0 -23.333 -7.66602 -44 -22.999 -62l-117 -134c-18.667 -21.333 -42.334 -32 -71.001 -32h-299c-26 0 -48.167 9.16699 -66.5 27.5s-27.5 40.5 -27.5 66.5s9.16699 48.167 27.5 66.5s40.5 27.5 66.5 27.5h256l65 75v145c0 26 9.16699 48.167 27.5 66.5s40.5 27.5 66.5 27.5
s48.333 -9.16699 67 -27.5s28 -40.5 28 -66.5v-180zM580.001 406.998c-26 0 -48.167 9.16699 -66.5 27.5s-27.5 40.5 -27.5 66.5s9.16699 48.167 27.5 66.5s40.5 27.5 66.5 27.5s48.333 -9.16699 67 -27.5s28 -40.5 28 -66.5s-9.33301 -48.167 -28 -66.5
s-41 -27.5 -67 -27.5z" />
    <glyph glyph-name="k" unicode="k" 
d="M824 337c42.667 3.33301 78.8311 20.6689 108.498 52.002s44.5 68.666 44.5 111.999c0 45.333 -16 84.166 -48 116.499s-71 48.5 -117 48.5h-232c-36 0 -68.333 -10.667 -97 -32l-140 -102h-14v103c0 45.333 -16 84.166 -48 116.499s-70.667 48.5 -116 48.5
s-84.166 -16.167 -116.499 -48.5s-48.5 -71.166 -48.5 -116.499v-536c0 -45.333 16.167 -84 48.5 -116s71.166 -48 116.499 -48s84 16 116 48s48 70.667 48 116v104h68c36 0 68.333 10.333 97 31l40 30c-1.33301 -10.667 -2 -21 -2 -31c0 -40.667 13.333 -76.667 40 -108
l116 -134c32.667 -37.333 74.334 -56 125.001 -56c40.667 0 76.334 13.333 107.001 40c34.667 29.333 53.667 67 57 113c3.33301 45.333 -10 85 -40 119zM452.997 291.003c-16.667 -12 -35.333 -18 -56 -18h-138v-174c0 -26 -9.16699 -48.167 -27.5 -66.5
s-40.5 -27.5 -66.5 -27.5s-48.167 9.16699 -66.5 27.5s-27.5 40.5 -27.5 66.5v536c0 26 9.16699 48.167 27.5 66.5s40.5 27.5 66.5 27.5s48.167 -9.16699 66.5 -27.5s27.5 -40.5 27.5 -66.5v-174h107l159 116c16 12 34.333 18 55 18h232c26 0 48.333 -9.16699 67 -27.5
s28 -40.5 28 -66.5s-9.33301 -48.167 -28 -66.5s-41 -27.5 -67 -27.5h-201zM873.998 28.0029c-17.333 -15.333 -37.999 -22.999 -61.999 -22.999c-28.667 0 -52.334 11 -71.001 33l-116 134c-15.333 17.333 -23 37.666 -23 60.999c0 28.667 11 52.334 33 71.001
c17.333 15.333 37.666 23 60.999 23c28.667 0 52.334 -10.667 71.001 -32l117 -134c15.333 -18 23 -38.667 23 -62c0 -28.667 -11 -52.334 -33 -71.001z" />
    <glyph glyph-name="l" unicode="l" horiz-adv-x="375" 
d="M406 207l-76.002 87.001v341c0 45.333 -16.167 84.166 -48.5 116.499s-71.166 48.5 -116.499 48.5s-84.166 -16.167 -116.499 -48.5s-48.5 -71.166 -48.5 -116.499v-402c-0 -41.333 13.333 -77.333 40 -108l116 -134c30 -34.667 67.667 -53.667 113 -57
c45.333 -2.66699 85.333 10.666 120 39.999c38 33.333 57 75 57 125c0 40.667 -13.333 76.667 -40 108zM342.998 28.001c-18 -15.333 -38.666 -22.999 -61.999 -22.999c-28.667 0 -52.334 10.667 -71.001 32l-116 134c-15.333 18 -23 38.667 -23 62v402
c0 26 9.16699 48.167 27.5 66.5s40.5 27.5 66.5 27.5s48.167 -9.16699 66.5 -27.5s27.5 -40.5 27.5 -66.5v-367l93 -107c15.333 -18 23 -38.667 23 -62c0 -28.667 -10.667 -52.334 -32 -71.001z" />
    <glyph glyph-name="m" unicode="m" 
d="M937 475l-115.998 133.999c-32.667 38 -74.334 57 -125.001 57c-38.667 0 -73.334 -12.333 -104.001 -37c-30 24.667 -64.333 37 -103 37h-324c-45.333 0 -84.166 -16.167 -116.499 -48.5s-48.5 -71.166 -48.5 -116.499v-402c0 -45.333 16.167 -84 48.5 -116
s71.166 -48 116.499 -48c40 0 75.333 13 106 39s49.334 58.667 56.001 98c6.66699 -39.333 25.167 -72 55.5 -98s65.833 -39 106.5 -39c40 0 75.167 12.833 105.5 38.5s49.166 57.834 56.499 96.501c6.66699 -38.667 25.167 -70.834 55.5 -96.501s65.5 -38.5 105.5 -38.5
c46 0 85 16 117 48s48 70.667 48 116v268c0 41.333 -13.333 77.333 -40 108zM583.002 98.999c0 -26 -9.16699 -48.167 -27.5 -66.5s-40.5 -27.5 -66.5 -27.5s-48.333 9.16699 -67 27.5s-28 40.5 -28 66.5v308h-135v-308c0 -26 -9.16699 -48.167 -27.5 -66.5
s-40.5 -27.5 -66.5 -27.5s-48.167 9.16699 -66.5 27.5s-27.5 40.5 -27.5 66.5v402c0 26 9.16699 48.167 27.5 66.5s40.5 27.5 66.5 27.5h324c26 0 48.167 -9.16699 66.5 -27.5s27.5 -40.5 27.5 -66.5v-402zM907.002 98.999c0 -26 -9.33301 -48.167 -28 -66.5
s-41 -27.5 -67 -27.5s-48.167 9.16699 -66.5 27.5s-27.5 40.5 -27.5 66.5v233l-93 108c-15.333 17.333 -23 37.666 -23 60.999c0 28.667 11 52.334 33 71.001c17.333 15.333 37.666 23 60.999 23c28.667 0 52.334 -10.667 71.001 -32l117 -134c15.333 -18 23 -38.667 23 -62
v-268z" />
    <glyph glyph-name="n" unicode="n" 
d="M937 475l-116 133.999c-33.333 38 -75 57 -125 57h-531c-45.333 0 -84.166 -16.167 -116.499 -48.5s-48.5 -71.166 -48.5 -116.499v-402c0 -45.333 16.167 -84 48.5 -116s71.166 -48 116.499 -48s84 16 116 48s48 70.667 48 116v238h292l27 -31v-207
c0 -45.333 16 -84 48 -116s70.667 -48 116 -48c46 0 85 16 117 48s48 70.667 48 116v268c0 41.333 -13.333 77.333 -40 108zM907 98.999c0 -26 -9.33398 -48.167 -28.001 -66.5s-41 -27.5 -67 -27.5s-48.167 9.16699 -66.5 27.5s-27.5 40.5 -27.5 66.5v233l-65 75h-394v-308
c0 -26 -9.16699 -48.167 -27.5 -66.5s-40.5 -27.5 -66.5 -27.5s-48.167 9.16699 -66.5 27.5s-27.5 40.5 -27.5 66.5v402c0 26 9.16699 48.167 27.5 66.5s40.5 27.5 66.5 27.5h531c28.667 0 52.334 -10.667 71.001 -32l117 -134c15.333 -18 23 -38.667 23 -62v-268z" />
    <glyph glyph-name="o" unicode="o" 
d="M259 332v-139h394l65 75v139h-394zM812 666l-530.999 0.000976562c-50 0 -91.667 -19 -125 -57l-116 -134c-26.667 -30.667 -40 -66.667 -40 -108v-268c0 -45.333 16.167 -84 48.5 -116s71.166 -48 116.499 -48h531c50 0 91.667 18.667 125 56l116 134
c26.667 31.333 40 67.333 40 108v268c0 45.333 -16 84.166 -48 116.499s-71 48.5 -117 48.5zM907.001 233.001c0 -23.333 -7.66699 -43.667 -23 -61l-117 -134c-18.667 -22 -42.334 -33 -71.001 -33h-531c-26 0 -48.167 9.16699 -66.5 27.5s-27.5 40.5 -27.5 66.5v268
c0 23.333 7.66699 44 23 62l116 134c18.667 21.333 42.334 32 71.001 32h531c26 0 48.333 -9.16699 67 -27.5s28 -40.5 28 -66.5v-268z" />
    <glyph glyph-name="p" unicode="p" 
d="M937 475l-115.998 133.997c-32.667 38 -74 57 -124 57h-532c-45.333 0 -84.166 -16.167 -116.499 -48.5s-48.5 -71.166 -48.5 -116.499s16.167 -84.166 48.5 -116.499s71.166 -48.5 116.499 -48.5h456l27 -30v-42h-483c-45.333 0 -84.166 -16.167 -116.499 -48.5
s-48.5 -71.166 -48.5 -116.499v-134c0 -45.333 16.167 -84.166 48.5 -116.499s71.166 -48.5 116.499 -48.5c40 0 75.167 12.667 105.5 38s49.166 57.333 56.499 96h486c45.333 0 84.166 16.167 116.499 48.5s48.5 71.166 48.5 116.499v268c0 41.333 -13.667 77.333 -41 108z
M907.002 98.9971c0 -26 -9.16797 -48.167 -27.501 -66.5s-40.5 -27.5 -66.5 -27.5h-554v-40c0 -26 -9.16699 -48.167 -27.5 -66.5s-40.5 -27.5 -66.5 -27.5s-48.167 9.16699 -66.5 27.5s-27.5 40.5 -27.5 66.5v134c0 26 9.16699 48.167 27.5 66.5s40.5 27.5 66.5 27.5h554
v139l-65 75h-489c-26 0 -48.167 9.16699 -66.5 27.5s-27.5 40.5 -27.5 66.5s9.16699 48.167 27.5 66.5s40.5 27.5 66.5 27.5h532c28.667 0 52.334 -10.667 71.001 -32l116 -134c15.333 -18 23 -38.667 23 -62v-268z" />
    <glyph glyph-name="q" unicode="q" 
d="M978 99v-134.003c0 -45.333 -16.167 -84.166 -48.5 -116.499s-71.166 -48.5 -116.499 -48.5c-40 0 -75.167 12.667 -105.5 38s-49.166 57.333 -56.499 96h-370c-50 0 -91.667 19 -125 57l-116 134c-26.667 30.667 -40 66.667 -40 108v268
c0 45.333 16.167 84.166 48.5 116.499s71.166 48.5 116.499 48.5h648c45.333 0 84.166 -16.167 116.499 -48.5s48.5 -71.166 48.5 -116.499s-16.167 -84.166 -48.5 -116.499s-71.166 -48.5 -116.499 -48.5h-483v-42l26 -30h457c45.333 0 84.166 -16.167 116.499 -48.5
s48.5 -71.166 48.5 -116.499zM165 594.997c-26 0 -48.168 -9.16699 -66.501 -27.5s-27.5 -40.5 -27.5 -66.5v-268c0 -23.333 7.66699 -44 23 -62l116 -134c18.667 -21.333 42.334 -32 71.001 -32h438v-40c0 -26 9.16699 -48.167 27.5 -66.5s40.5 -27.5 66.5 -27.5
s48.167 9.16699 66.5 27.5s27.5 40.5 27.5 66.5v134c0 26 -9.16699 48.167 -27.5 66.5s-40.5 27.5 -66.5 27.5h-489l-65 75v139h554c26 0 48.167 9.16699 66.5 27.5s27.5 40.5 27.5 66.5s-9.16699 48.167 -27.5 66.5s-40.5 27.5 -66.5 27.5h-648z" />
    <glyph glyph-name="r" unicode="r" 
d="M977 367l-0.000976562 -134c0 -45.333 -16 -84.166 -48 -116.499s-71 -48.5 -117 -48.5c-45.333 0 -84 16.167 -116 48.5s-48 71.166 -48 116.499v72l-27 31h-292v-237c0 -45.333 -16 -84.166 -48 -116.499s-70.667 -48.5 -116 -48.5s-84.166 16.167 -116.499 48.5
s-48.5 71.166 -48.5 116.499v402c0 45.333 16.167 84 48.5 116s71.166 48 116.499 48h531c50.667 0 92.334 -18.667 125.001 -56l116 -134c26.667 -31.333 40 -67.333 40 -108zM164.999 595c-26 0 -48.166 -9.16602 -66.499 -27.499s-27.5 -40.5 -27.5 -66.5v-402
c0 -26 9.16699 -48.167 27.5 -66.5s40.5 -27.5 66.5 -27.5s48.167 9.16699 66.5 27.5s27.5 40.5 27.5 66.5v308h394l65 -75v-99c0 -26 9.16699 -48.167 27.5 -66.5s40.5 -27.5 66.5 -27.5s48.333 9.16699 67 27.5s28 40.5 28 66.5v134c0 23.333 -7.66699 43.666 -23 60.999
l-117 134c-18.667 22 -42.334 33 -71.001 33h-531z" />
    <glyph glyph-name="s" unicode="s" 
d="M977 244c3.33301 -45.333 -9.99902 -84.998 -39.999 -118.998l-116 -134c-32.667 -38 -74.334 -57 -125.001 -57h-531c-45.333 0 -84.166 16.167 -116.499 48.5s-48.5 71.166 -48.5 116.499c0 56 23 100.667 69 134c-42 30 -65 70.667 -69 122
c-2.66699 45.333 10.666 85.333 39.999 120l116 134c33.333 37.333 75 56 125 56h531c46 0 85 -16 117 -48s48 -70.667 48 -116c0 -56.667 -23 -101.334 -69 -134.001c42 -30 65 -71 69 -123zM281.001 595.002c-28.667 0 -52.334 -11 -71.001 -33l-116 -134
c-15.333 -17.333 -23 -37.666 -23 -60.999c0 -28.667 10.667 -52.334 32 -71.001c18 -15.333 38.667 -23 62 -23c28.667 0 52.334 10.667 71.001 32l88 102h488c26 0 48.333 9.16699 67 27.5s28 40.5 28 66.5s-9.33301 48.167 -28 66.5s-41 27.5 -67 27.5h-531z
M741.001 294.002l-88 -101.001h-488c-26 0 -48.167 -9.16699 -66.5 -27.5s-27.5 -40.5 -27.5 -66.5s9.16699 -48.167 27.5 -66.5s40.5 -27.5 66.5 -27.5h531c28.667 0 52.334 10.667 71.001 32l117 134c15.333 18 23 38.667 23 62c0 28.667 -11 52.334 -33 71.001
c-17.333 15.333 -38 23 -62 23c-28.667 0 -52.334 -11 -71.001 -33zM489.001 394.001c-26 0 -48.333 -9.16699 -67 -27.5s-28 -40.5 -28 -66.5s9.33301 -48.167 28 -66.5s41 -27.5 67 -27.5s48.167 9.16699 66.5 27.5s27.5 40.5 27.5 66.5s-9.16699 48.167 -27.5 66.5
s-40.5 27.5 -66.5 27.5z" />
    <glyph glyph-name="t" unicode="t" 
d="M745 336l0.00292969 -42.002l76 -87c26.667 -31.333 40 -67.333 40 -108c0 -50 -18.667 -91.667 -56 -125c-31.333 -26.667 -67.333 -40 -108 -40c-50.667 0 -92.334 19 -125.001 57l-116 134c-26.667 30.667 -40 66.667 -40 108v103h-60l-67 -77
c-29.333 -34 -66.666 -52.667 -111.999 -56c-46 -3.33301 -86 9.66699 -120 39c-38 33.333 -57 75 -57 125c0 41.333 13.333 77.333 40 108l116 134c33.333 38 75 57 125 57h138c7.33301 38.667 26.166 70.667 56.499 96s65.166 38 104.499 38
c40 0 75.167 -12.667 105.5 -38s49.166 -57.333 56.499 -96h71c45.333 0 84.166 -16.167 116.499 -48.5s48.5 -71.166 48.5 -116.499s-16.167 -84.166 -48.5 -116.499s-71.166 -48.5 -116.499 -48.5h-68zM813.003 594.998h-137.999v40c0 26 -9.33301 48.167 -28 66.5
s-41 27.5 -67 27.5s-48.167 -9.16699 -66.5 -27.5s-27.5 -40.5 -27.5 -66.5v-40h-205c-28.667 0 -52.334 -10.667 -71.001 -32l-116 -134c-15.333 -18 -23 -38.667 -23 -62c0 -28.667 10.667 -52.334 32 -71.001c18 -15.333 38.667 -23 62 -23
c28.667 0 52.334 10.667 71.001 32l88 102h162v-174c0 -23.333 7.66699 -44 23 -62l116 -134c19.333 -21.333 43.333 -32 72 -32c23.333 0 43.666 7.66699 60.999 23c22 18.667 33 42.334 33 71.001c0 23.333 -7.66699 44 -23 62l-93 107v139h138
c26 0 48.167 9.16699 66.5 27.5s27.5 40.5 27.5 66.5s-9.16699 48.167 -27.5 66.5s-40.5 27.5 -66.5 27.5z" />
    <glyph glyph-name="u" unicode="u" 
d="M977 501l0.000976562 -402.001c0 -45.333 -16 -84.166 -48 -116.499s-71 -48.5 -117 -48.5h-531c-50 0 -91.667 19 -125 57l-116 134c-26.667 30.667 -40 66.667 -40 108v268c0 45.333 16.167 84 48.5 116s71.166 48 116.499 48s84 -16 116 -48s48 -70.667 48 -116v-207
l27 -31h292v238c0 45.333 16 84 48 116s70.667 48 116 48c46 0 85 -16 117 -48s48 -70.667 48 -116zM718.001 500.999l-0.000976562 -308h-394l-65 75v233c0 26 -9.16699 48.167 -27.5 66.5s-40.5 27.5 -66.5 27.5s-48.167 -9.16699 -66.5 -27.5s-27.5 -40.5 -27.5 -66.5
v-268c0 -23.333 7.66699 -44 23 -62l116 -134c18.667 -21.333 42.334 -32 71.001 -32h531c26 0 48.333 9.16699 67 27.5s28 40.5 28 66.5v402c0 26 -9.33301 48.167 -28 66.5s-41 27.5 -67 27.5s-48.167 -9.16699 -66.5 -27.5s-27.5 -40.5 -27.5 -66.5z" />
    <glyph glyph-name="v" unicode="v" 
d="M977 501v-133.999c0 -41.333 -13.333 -77.333 -40 -108l-232 -268c-33.333 -38 -75 -57 -125 -57h-415c-45.333 0 -84.166 16.167 -116.499 48.5s-48.5 71.166 -48.5 116.499v402c0 45.333 16.167 84 48.5 116s71.166 48 116.499 48s84 -16 116 -48s48 -70.667 48 -116
v-238h176l143 165v73c0 45.333 16 84 48 116s70.667 48 116 48c46 0 85 -16 117 -48s48 -70.667 48 -116zM718 501.001l-0.000976562 -99l-181 -209h-278v308c0 26 -9.16699 48.167 -27.5 66.5s-40.5 27.5 -66.5 27.5s-48.167 -9.16699 -66.5 -27.5s-27.5 -40.5 -27.5 -66.5
v-402c0 -26 9.16699 -48.167 27.5 -66.5s40.5 -27.5 66.5 -27.5h415c28.667 0 52.334 10.667 71.001 32l233 268c15.333 18 23 38.667 23 62v134c0 26 -9.33301 48.167 -28 66.5s-41 27.5 -67 27.5s-48.167 -9.16699 -66.5 -27.5s-27.5 -40.5 -27.5 -66.5z" />
    <glyph glyph-name="w" unicode="w" 
d="M977 501v-267.998c0 -41.333 -13.333 -77.333 -40 -108l-116 -134c-30 -34.667 -67.667 -53.667 -113 -57c-43.333 -2.66699 -82 9.66602 -116 36.999c-30 -24.667 -64.333 -37 -103 -37h-324c-45.333 0 -84.166 16.167 -116.499 48.5s-48.5 71.166 -48.5 116.499v402
c0 45.333 16.167 84 48.5 116s71.166 48 116.499 48c40 0 75.333 -13 106 -39s49.334 -58.667 56.001 -98c6.66699 39.333 25.167 72 55.5 98s65.833 39 106.5 39c40 0 75.167 -12.833 105.5 -38.5s49.166 -57.834 56.499 -96.501c6.66699 38.667 25.167 70.834 55.5 96.501
s65.5 38.5 105.5 38.5c46 0 85 -16 117 -48s48 -70.667 48 -116zM489 595.002c-26 0 -48.333 -9.16699 -67 -27.5s-28 -40.5 -28 -66.5v-308h-135v308c0 26 -9.16699 48.167 -27.5 66.5s-40.5 27.5 -66.5 27.5s-48.167 -9.16699 -66.5 -27.5s-27.5 -40.5 -27.5 -66.5v-402
c0 -26 9.16699 -48.167 27.5 -66.5s40.5 -27.5 66.5 -27.5h324c26 0 48.167 9.16699 66.5 27.5s27.5 40.5 27.5 66.5v402c0 26 -9.16699 48.167 -27.5 66.5s-40.5 27.5 -66.5 27.5zM812 595.002c-26 0 -48.167 -9.16699 -66.5 -27.5s-27.5 -40.5 -27.5 -66.5v-233l-93 -108
c-15.333 -17.333 -23 -37.666 -23 -60.999c0 -28.667 11 -52.334 33 -71.001c17.333 -15.333 37.666 -23 60.999 -23c28.667 0 52.334 10.667 71.001 32l117 134c15.333 18 23 38.667 23 62v268c0 26 -9.33301 48.167 -28 66.5s-41 27.5 -67 27.5z" />
    <glyph glyph-name="x" unicode="x" 
d="M977 99c0 -45.333 -16.0049 -84.166 -48.0049 -116.499s-71 -48.5 -117 -48.5h-116c-50 0 -91.333 19 -124 57l-67 77h-33l-67 -77c-32.667 -38 -74 -57 -124 -57h-116c-45.333 0 -84.166 16.167 -116.499 48.5s-48.5 71.166 -48.5 116.499c0 44.667 15.833 83 47.5 115
s70.167 48.333 115.5 49c-14.667 9.33301 -27.667 20.333 -39 33l-84 97c-29.333 34 -42.666 73.667 -39.999 119c3.33301 46 22.333 83.667 57 113c30.667 26.667 66.667 40 108 40c50 0 91.333 -18.667 124 -56l84 -98c28.667 -32 42 -70 40 -114h151
c-2 44 11.333 82 40 114l84 98c32.667 37.333 74.334 56 125.001 56c40.667 0 76.334 -13.333 107.001 -40c34.667 -29.333 53.667 -67 57 -113c3.33301 -45.333 -10 -85 -40 -119l-84 -97c-11.333 -12.667 -24 -23.667 -38 -33c44.667 -0.666992 82.834 -17 114.501 -49
s47.5 -70.333 47.5 -115zM811.995 193h-73l-88 101c-18.667 22 -42.334 33 -71.001 33h-183c-28.667 0 -52.334 -11 -71.001 -33l-88 -101h-73c-26 0 -48.167 -9.16699 -66.5 -27.5s-27.5 -40.5 -27.5 -66.5s9.16699 -48.167 27.5 -66.5s40.5 -27.5 66.5 -27.5h116
c28.667 0 52.334 10.667 71.001 32l88 102h97l88 -102c18.667 -21.333 42.334 -32 71.001 -32h116c26 0 48.333 9.16699 67 27.5s28 40.5 28 66.5s-9.33301 48.167 -28 66.5s-41 27.5 -67 27.5zM666.995 332c17.333 -15.333 37.667 -23.002 61 -23.002
c28.667 0 52.334 11 71.001 33l85 97c15.333 18 23 38.667 23 62c0 28.667 -11 52.334 -33 71.001c-17.333 15.333 -38 23 -62 23c-28.667 0 -52.334 -11 -71.001 -33l-84 -97c-15.333 -17.333 -23 -37.666 -23 -60.999c0 -28.667 11 -52.667 33 -72zM177.996 341.998
c18.667 -22 42.334 -32.998 71.001 -32.998c23.333 0 44 7.66699 62 23c21.333 19.333 32 43.333 32 72c0 23.333 -7.66699 43.666 -23 60.999l-84 97c-18.667 22 -42.334 33 -71.001 33c-23.333 0 -44 -7.66699 -62 -23c-21.333 -18.667 -32 -42.334 -32 -71.001
c0 -23.333 7.66699 -44 23 -62z" />
    <glyph glyph-name="y" unicode="y" 
d="M813 666c-45.333 0 -84.1699 -16.168 -116.503 -48.501s-48.5 -71.166 -48.5 -116.499v-341l-4 -5c-12 32 -32.167 58.167 -60.5 78.5s-59.833 30.5 -94.5 30.5h-133l-26 30v207c0 45.333 -16.167 84.166 -48.5 116.499s-71.166 48.5 -116.499 48.5
s-84.166 -16.167 -116.499 -48.5s-48.5 -71.166 -48.5 -116.499v-268c0 -41.333 13.333 -77.333 40 -108l116 -134c33.333 -38 75 -57 125 -57h208c14.667 0 29.667 2 45 6c6 -40 24.333 -73.333 55 -100c34 -29.333 73.667 -42.666 119 -39.999
c45.333 3.33301 83 22.333 113 57l116 134c27.333 30.667 41 66.667 41 108v402c0 45.333 -16.167 84.166 -48.5 116.499s-71.166 48.5 -116.499 48.5zM488.996 4.99902h-207.999c-28.667 0 -52.334 10.667 -71.001 32l-116 134c-15.333 18 -23 38.667 -23 62v268
c0 26 9.16699 48.167 27.5 66.5s40.5 27.5 66.5 27.5s48.167 -9.16699 66.5 -27.5s27.5 -40.5 27.5 -66.5v-233l65 -75h165c26 0 48.167 -9.16699 66.5 -27.5s27.5 -40.5 27.5 -66.5s-9.16699 -48.167 -27.5 -66.5s-40.5 -27.5 -66.5 -27.5zM906.997 98.999
c0 -23.333 -7.66602 -44 -22.999 -62l-116 -134c-18.667 -21.333 -42.334 -32 -71.001 -32c-23.333 0 -44 7.66699 -62 23c-22 18.667 -33 42.334 -33 71.001c0 23.333 7.66699 43.666 23 60.999l94 108v367c0 26 9.16699 48.167 27.5 66.5s40.5 27.5 66.5 27.5
s48.167 -9.16699 66.5 -27.5s27.5 -40.5 27.5 -66.5v-402z" />
    <glyph glyph-name="z" unicode="z" 
d="M824 263l112.999 130.004c26.667 30.667 40 66.667 40 108c0 24 -5 46.667 -15 68c-13.333 29.333 -33.5 52.666 -60.5 69.999s-56.833 26 -89.5 26h-647c-45.333 0 -84.166 -16 -116.499 -48s-48.5 -70.667 -48.5 -116c-0 -43.333 14.833 -80.833 44.5 -112.5
s65.834 -48.834 108.501 -51.501l-113 -130c-26.667 -31.333 -40 -67.333 -40 -108c0 -24 5 -47 15 -69c13.333 -29.333 33.5 -52.666 60.5 -69.999s56.833 -26 89.5 -26h647c46 0 85 16.167 117 48.5s48 71.166 48 116.499c0 43.333 -14.833 80.666 -44.5 111.999
s-65.834 48.666 -108.501 51.999zM70.999 501.004c0 26 9.16602 48.167 27.499 66.5s40.5 27.5 66.5 27.5h647c40.667 0 69.334 -18.333 86.001 -55c6 -12.667 9 -25.667 9 -39c0 -23.333 -7.66699 -44 -23 -62l-117 -134c-18.667 -21.333 -42.334 -32 -71.001 -32
c-23.333 0 -43.666 7.66699 -60.999 23c-22 18.667 -33 42.334 -33 71.001c0 13.333 3 26.666 9 39.999h-446c-26 0 -48.167 9.16699 -66.5 27.5s-27.5 40.5 -27.5 66.5zM811.998 5.00391l-647 0.000976562c-40.667 0 -69.334 18.333 -86.001 55c-5.33301 12 -8 25 -8 39
c0 23.333 7.66699 43.666 23 60.999l116 134c18.667 22 42.334 33 71.001 33c23.333 0 44 -7.66699 62 -23c21.333 -18.667 32 -42.334 32 -71.001c0 -13.333 -3 -26.666 -9 -39.999h446c26 0 48.333 -9.16699 67 -27.5s28 -40.5 28 -66.5s-9.33301 -48.167 -28 -66.5
s-41 -27.5 -67 -27.5z" />
    <glyph glyph-name="braceleft" unicode="{" horiz-adv-x="375" 
d="M330 294v146.001l76 87c26.667 31.333 40 67.333 40 108c0 50 -19 91.667 -57 125c-34.667 29.333 -74.667 42.666 -120 39.999c-45.333 -3.33301 -83 -22.333 -113 -57v0l-116 -134c-26.667 -30.667 -40 -66.667 -40 -108v-268c-0 -41.333 13.333 -77.333 40 -108
l116 -134c33.333 -38 75 -57 125 -57c41.333 0 77.333 13.333 108 40c38 33.333 57 75 57 125c0 40.667 -13.333 76.667 -40 108zM343 28.001c-18 -15.333 -38.667 -22.999 -62 -22.999c-28.667 0 -52.334 10.667 -71.001 32l-116 134c-15.333 18 -23 38.667 -23 62v268
c0 23.333 7.66699 44 23 62l116 134c18.667 21.333 42.334 32 71.001 32c23.333 0 44 -7.66699 62 -23c21.333 -18.667 32 -42.334 32 -71.001c0 -23.333 -7.66699 -43.666 -23 -60.999l-93 -108v-198l93 -107c15.333 -18 23 -38.667 23 -62
c0 -28.667 -10.667 -52.334 -32 -71.001z" />
    <glyph glyph-name="braceright" unicode="}" horiz-adv-x="379" 
d="M406 609l-116.999 134c-32.667 38 -74 57 -124 57c-41.333 0 -77.333 -13.333 -108 -40c-38 -32.667 -57 -74.334 -57 -125.001c0 -40.667 13.333 -76.667 40 -108l76 -87v-146l-76 -87c-26.667 -31.333 -40 -67.333 -40 -108c0 -50 19 -91.667 57 -125
c34 -29.333 74 -42.333 120 -39c45.333 2.66699 82.666 21.334 111.999 56.001l117 134c26.667 31.333 40 67.333 40 108v268c0 41.333 -13.333 77.333 -40 108zM375.001 233c0 -23.333 -7.66699 -44.001 -23 -62.001l-116 -134c-18.667 -21.333 -42.334 -32 -71.001 -32
c-23.333 0 -44 7.66699 -62 23c-21.333 18.667 -32 42.334 -32 71.001c0 23.333 7.66699 44 23 62l93 107v198l-93 108c-15.333 17.333 -23 37.666 -23 60.999c0 28.667 10.667 52.334 32 71.001c18 15.333 38.667 23 62 23c28.667 0 52.334 -10.667 71.001 -32l116 -134
c15.333 -18 23 -38.667 23 -62v-268z" />
    <glyph glyph-name="nonbreakingspace" unicode="&#xa0;" horiz-adv-x="1000" 
 />
    <glyph glyph-name="registered" unicode="&#xae;" horiz-adv-x="1040" 
d="M813 800h-532c-50 0 -91.667 -19 -125 -57l-116 -134c-26.667 -30.667 -40 -66.667 -40 -108v-402c0 -45.333 16.167 -84.166 48.5 -116.499s71.166 -48.5 116.499 -48.5h532c50 0 91.333 19 124 57l116 134c27.333 30.667 41 66.667 41 108v402
c0 45.333 -16.167 84.166 -48.5 116.499s-71.166 48.5 -116.499 48.5zM509 164h-98v83h98v-83zM647 164h-99v83h99v-83zM606 363c-26 0 -48.333 9.16699 -67 27.5s-28 40.5 -28 66.5s9.33301 48.333 28 67s41 28 67 28s48.167 -9.33301 66.5 -28s27.5 -41 27.5 -67
s-9.16699 -48.167 -27.5 -66.5s-40.5 -27.5 -66.5 -27.5zM784 164h-98v83h98v-83zM775 431c0 18.667 6.5 34.667 19.5 48s28.833 20 47.5 20s34.667 -6.66699 48 -20s20 -29.333 20 -48s-6.66699 -34.667 -20 -48s-29.333 -20 -48 -20s-34.5 6.66699 -47.5 20
s-19.5 29.333 -19.5 48zM922 164h-98v83h98v-83z" />
    <glyph glyph-name="mu" unicode="&#xb5;" horiz-adv-x="1040" 
d="M937 609l-116 134c-32.667 38 -74 57 -124 57h-532c-45.333 0 -84.166 -16.167 -116.499 -48.5s-48.5 -71.166 -48.5 -116.499v-402c0 -41.333 13.333 -77.333 40 -108l116 -134c33.333 -38 75 -57 125 -57h532c45.333 0 84.166 16.167 116.499 48.5
s48.5 71.166 48.5 116.499v402c0 41.333 -13.667 77.333 -41 108zM108 431c0 18.667 6.66699 34.667 20 48s29.333 20 48 20s34.667 -6.66699 48 -20s20 -29.333 20 -48s-6.66699 -34.667 -20 -48s-29.333 -20 -48 -20s-34.667 6.66699 -48 20s-20 29.333 -20 48zM382 219
h-202.001c-18.667 0 -28 9.66699 -28 29c0 18.667 9.33301 28 28 28h202c19.333 0 32.333 9 39 27c4.66699 12 13.334 18 26.001 18c19.333 0 29 -9.33301 29 -28c0 -19.333 -10.667 -36.5 -32 -51.5s-42 -22.5 -62 -22.5zM394.999 367c-26 0 -48.167 9.16699 -66.5 27.5
s-27.5 40.5 -27.5 66.5s9.16699 48.167 27.5 66.5s40.5 27.5 66.5 27.5s48.167 -9.16699 66.5 -27.5s27.5 -40.5 27.5 -66.5s-9.16699 -48.167 -27.5 -66.5s-40.5 -27.5 -66.5 -27.5zM427.999 454c-11.333 0 -20.999 4.00098 -28.999 12.001s-12 18 -12 30
c0 13.333 5.33301 24 16 32c-2.66699 0.666992 -5.33398 1 -8.00098 1c-18.667 0 -34.5 -6.66699 -47.5 -20s-19.5 -29.333 -19.5 -48s6.5 -34.667 19.5 -48s28.833 -20 47.5 -20s34.667 6.66699 48 20s20 29.333 20 48c0 3.33301 -0.333008 6.66602 -1 9.99902
c-8.66699 -11.333 -20 -17 -34 -17z" />
    <glyph glyph-name="mu" unicode="&#x3bc;" horiz-adv-x="1040" 
d="M937 609l-116 134c-32.667 38 -74 57 -124 57h-532c-45.333 0 -84.166 -16.167 -116.499 -48.5s-48.5 -71.166 -48.5 -116.499v-402c0 -41.333 13.333 -77.333 40 -108l116 -134c33.333 -38 75 -57 125 -57h532c45.333 0 84.166 16.167 116.499 48.5
s48.5 71.166 48.5 116.499v402c0 41.333 -13.667 77.333 -41 108zM108 431c0 18.667 6.66699 34.667 20 48s29.333 20 48 20s34.667 -6.66699 48 -20s20 -29.333 20 -48s-6.66699 -34.667 -20 -48s-29.333 -20 -48 -20s-34.667 6.66699 -48 20s-20 29.333 -20 48zM382 219
h-202.001c-18.667 0 -28 9.66699 -28 29c0 18.667 9.33301 28 28 28h202c19.333 0 32.333 9 39 27c4.66699 12 13.334 18 26.001 18c19.333 0 29 -9.33301 29 -28c0 -19.333 -10.667 -36.5 -32 -51.5s-42 -22.5 -62 -22.5zM394.999 367c-26 0 -48.167 9.16699 -66.5 27.5
s-27.5 40.5 -27.5 66.5s9.16699 48.167 27.5 66.5s40.5 27.5 66.5 27.5s48.167 -9.16699 66.5 -27.5s27.5 -40.5 27.5 -66.5s-9.16699 -48.167 -27.5 -66.5s-40.5 -27.5 -66.5 -27.5zM427.999 454c-11.333 0 -20.999 4.00098 -28.999 12.001s-12 18 -12 30
c0 13.333 5.33301 24 16 32c-2.66699 0.666992 -5.33398 1 -8.00098 1c-18.667 0 -34.5 -6.66699 -47.5 -20s-19.5 -29.333 -19.5 -48s6.5 -34.667 19.5 -48s28.833 -20 47.5 -20s34.667 6.66699 48 20s20 29.333 20 48c0 3.33301 -0.333008 6.66602 -1 9.99902
c-8.66699 -11.333 -20 -17 -34 -17z" />
    <glyph glyph-name=".null" horiz-adv-x="0" 
 />
    <glyph glyph-name="nonmarkingreturn" horiz-adv-x="1000" 
 />
  </font>
</defs>
</svg>
